<svg version="1.1" xmlns="http://www.w3.org/2000/svg" viewBox="0 0 1650.9293695946071 927.9340399244421" width="1650.9293695946071" height="927.9340399244421" filter="invert(93%) hue-rotate(180deg)" class="excalidraw-svg">
  <!-- svg-source:excalidraw -->
  
  <defs>
    <style class="style-fonts">
      @font-face {
        font-family: "Virgil";
        src: url("https://excalidraw.com/Virgil.woff2");
      }
      @font-face {
        font-family: "Cascadia";
        src: url("https://excalidraw.com/Cascadia.woff2");
      }
      @font-face {
        font-family: "Assistant";
        src: url("https://excalidraw.com/Assistant-Regular.woff2");
      }
    </style>
    
  </defs>
  <g stroke-linecap="round" transform="translate(10.000000058408887 548.1488007457677) rotate(0 191.33337402343747 45.55387120060315)"><path d="M22.78 0 C106.05 0, 189.32 0, 359.89 0 C375.07 0, 382.67 7.59, 382.67 22.78 C382.67 37.75, 382.67 52.72, 382.67 68.33 C382.67 83.52, 375.07 91.11, 359.89 91.11 C263.2 91.11, 166.52 91.11, 22.78 91.11 C7.59 91.11, 0 83.52, 0 68.33 C0 55.61, 0 42.88, 0 22.78 C0 7.59, 7.59 0, 22.78 0" stroke="none" stroke-width="0" fill="#228be6"/><path d="M22.78 0 C103.93 0, 185.08 0, 359.89 0 M22.78 0 C124.43 0, 226.08 0, 359.89 0 M359.89 0 C375.07 0, 382.67 7.59, 382.67 22.78 M359.89 0 C375.07 0, 382.67 7.59, 382.67 22.78 M382.67 22.78 C382.67 40.58, 382.67 58.37, 382.67 68.33 M382.67 22.78 C382.67 38.11, 382.67 53.45, 382.67 68.33 M382.67 68.33 C382.67 83.52, 375.07 91.11, 359.89 91.11 M382.67 68.33 C382.67 83.52, 375.07 91.11, 359.89 91.11 M359.89 91.11 C235.79 91.11, 111.69 91.11, 22.78 91.11 M359.89 91.11 C248.69 91.11, 137.49 91.11, 22.78 91.11 M22.78 91.11 C7.59 91.11, 0 83.52, 0 68.33 M22.78 91.11 C7.59 91.11, 0 83.52, 0 68.33 M0 68.33 C0 55.44, 0 42.55, 0 22.78 M0 68.33 C0 58.26, 0 48.19, 0 22.78 M0 22.78 C0 7.59, 7.59 0, 22.78 0 M0 22.78 C0 7.59, 7.59 0, 22.78 0" stroke="#1e1e1e" stroke-width="2" fill="none"/></g><g transform="translate(124.97399908184639 573.0026719463709) rotate(0 76.359375 20.7)"><text x="76.359375" y="0" font-family="Helvetica, Segoe UI Emoji" font-size="36px" fill="#1e1e1e" text-anchor="middle" style="white-space: pre;" direction="ltr" dominant-baseline="text-before-edge">Transport</text></g><g stroke-linecap="round" transform="translate(10.00000045110221 672.3664679573966) rotate(0 191.33337402343747 46.50000001042886)"><path d="M23.25 0 C130.17 0, 237.09 0, 359.42 0 C374.92 0, 382.67 7.75, 382.67 23.25 C382.67 38.17, 382.67 53.09, 382.67 69.75 C382.67 85.25, 374.92 93, 359.42 93 C245.25 93, 131.09 93, 23.25 93 C7.75 93, 0 85.25, 0 69.75 C0 55.68, 0 41.62, 0 23.25 C0 7.75, 7.75 0, 23.25 0" stroke="none" stroke-width="0" fill="#ff9e01"/><path d="M23.25 0 C144.96 0, 266.66 0, 359.42 0 M23.25 0 C92.09 0, 160.93 0, 359.42 0 M359.42 0 C374.92 0, 382.67 7.75, 382.67 23.25 M359.42 0 C374.92 0, 382.67 7.75, 382.67 23.25 M382.67 23.25 C382.67 37.26, 382.67 51.27, 382.67 69.75 M382.67 23.25 C382.67 40.75, 382.67 58.24, 382.67 69.75 M382.67 69.75 C382.67 85.25, 374.92 93, 359.42 93 M382.67 69.75 C382.67 85.25, 374.92 93, 359.42 93 M359.42 93 C256.96 93, 154.5 93, 23.25 93 M359.42 93 C279.83 93, 200.25 93, 23.25 93 M23.25 93 C7.75 93, 0 85.25, 0 69.75 M23.25 93 C7.75 93, 0 85.25, 0 69.75 M0 69.75 C0 60.14, 0 50.53, 0 23.25 M0 69.75 C0 59.79, 0 49.83, 0 23.25 M0 23.25 C0 7.75, 7.75 0, 23.25 0 M0 23.25 C0 7.75, 7.75 0, 23.25 0" stroke="#1e1e1e" stroke-width="2" fill="none"/></g><g transform="translate(140.2933354120397 698.1664679678254) rotate(0 61.0400390625 20.699999999999996)"><text x="61.0400390625" y="0" font-family="Helvetica, Segoe UI Emoji" font-size="36px" fill="#1e1e1e" text-anchor="middle" style="white-space: pre;" direction="ltr" dominant-baseline="text-before-edge">Internet</text></g><g stroke-linecap="round" transform="translate(10 779.116668002986) rotate(0 191.33337402343747 69.40868596072804)"><path d="M32 0 C136.32 0, 240.64 0, 350.67 0 C372 0, 382.67 10.67, 382.67 32 C382.67 61.82, 382.67 91.63, 382.67 106.82 C382.67 128.15, 372 138.82, 350.67 138.82 C252.87 138.82, 155.07 138.82, 32 138.82 C10.67 138.82, 0 128.15, 0 106.82 C0 89.53, 0 72.25, 0 32 C0 10.67, 10.67 0, 32 0" stroke="none" stroke-width="0" fill="#d050a5"/><path d="M32 0 C133.93 0, 235.86 0, 350.67 0 M32 0 C149.36 0, 266.72 0, 350.67 0 M350.67 0 C372 0, 382.67 10.67, 382.67 32 M350.67 0 C372 0, 382.67 10.67, 382.67 32 M382.67 32 C382.67 50.21, 382.67 68.42, 382.67 106.82 M382.67 32 C382.67 54.39, 382.67 76.77, 382.67 106.82 M382.67 106.82 C382.67 128.15, 372 138.82, 350.67 138.82 M382.67 106.82 C382.67 128.15, 372 138.82, 350.67 138.82 M350.67 138.82 C258.83 138.82, 166.98 138.82, 32 138.82 M350.67 138.82 C253.62 138.82, 156.57 138.82, 32 138.82 M32 138.82 C10.67 138.82, 0 128.15, 0 106.82 M32 138.82 C10.67 138.82, 0 128.15, 0 106.82 M0 106.82 C0 87.16, 0 67.5, 0 32 M0 106.82 C0 88.06, 0 69.31, 0 32 M0 32 C0 10.67, 10.67 0, 32 0 M0 32 C0 10.67, 10.67 0, 32 0" stroke="#1e1e1e" stroke-width="2" fill="none"/></g><g transform="translate(105.2689208984375 827.8253539637141) rotate(0 96.064453125 20.700000000000003)"><text x="96.064453125" y="0" font-family="Helvetica, Segoe UI Emoji" font-size="36px" fill="#1e1e1e" text-anchor="middle" style="white-space: pre;" direction="ltr" dominant-baseline="text-before-edge">Netzzugang</text></g><g stroke-linecap="round" transform="translate(1137.4625724379714 234.41664950077308) rotate(0 251.7333984374999 129.5)"><path d="M32 0 C143 0, 254 0, 471.47 0 C492.8 0, 503.47 10.67, 503.47 32 C503.47 97.45, 503.47 162.91, 503.47 227 C503.47 248.33, 492.8 259, 471.47 259 C322.85 259, 174.23 259, 32 259 C10.67 259, 0 248.33, 0 227 C0 165.18, 0 103.35, 0 32 C0 10.67, 10.67 0, 32 0" stroke="none" stroke-width="0" fill="#fa5252"/><path d="M32 0 C121.8 0, 211.59 0, 471.47 0 M32 0 C157.12 0, 282.24 0, 471.47 0 M471.47 0 C492.8 0, 503.47 10.67, 503.47 32 M471.47 0 C492.8 0, 503.47 10.67, 503.47 32 M503.47 32 C503.47 86.39, 503.47 140.79, 503.47 227 M503.47 32 C503.47 85.85, 503.47 139.71, 503.47 227 M503.47 227 C503.47 248.33, 492.8 259, 471.47 259 M503.47 227 C503.47 248.33, 492.8 259, 471.47 259 M471.47 259 C360.6 259, 249.74 259, 32 259 M471.47 259 C347.45 259, 223.42 259, 32 259 M32 259 C10.67 259, 0 248.33, 0 227 M32 259 C10.67 259, 0 248.33, 0 227 M0 227 C0 157.39, 0 87.79, 0 32 M0 227 C0 157.29, 0 87.57, 0 32 M0 32 C0 10.67, 10.67 0, 32 0 M0 32 C0 10.67, 10.67 0, 32 0" stroke="#1e1e1e" stroke-width="2" fill="none"/></g><g transform="translate(1178.4518302504714 281.11664950077306) rotate(0 210.744140625 82.8)"><text x="210.744140625" y="0" font-family="Helvetica, Segoe UI Emoji" font-size="36px" fill="#1e1e1e" text-anchor="middle" style="white-space: pre;" direction="ltr" dominant-baseline="text-before-edge">DHCP Discovery:</text><text x="210.744140625" y="41.4" font-family="Helvetica, Segoe UI Emoji" font-size="36px" fill="#1e1e1e" text-anchor="middle" style="white-space: pre;" direction="ltr" dominant-baseline="text-before-edge">Hallo? Ist da jemand? Ich</text><text x="210.744140625" y="82.8" font-family="Helvetica, Segoe UI Emoji" font-size="36px" fill="#1e1e1e" text-anchor="middle" style="white-space: pre;" direction="ltr" dominant-baseline="text-before-edge">brauche IP, Subnetmaske,</text><text x="210.744140625" y="124.19999999999999" font-family="Helvetica, Segoe UI Emoji" font-size="36px" fill="#1e1e1e" text-anchor="middle" style="white-space: pre;" direction="ltr" dominant-baseline="text-before-edge">Gateway, DNS, Domäne..!</text></g><g stroke-linecap="round" transform="translate(10.000000750760364 257.1475088565077) rotate(0 191.33337375919265 129.5)"><path d="M32 0 C121.42 0, 210.84 0, 350.67 0 C372 0, 382.67 10.67, 382.67 32 C382.67 96.15, 382.67 160.29, 382.67 227 C382.67 248.33, 372 259, 350.67 259 C249.45 259, 148.24 259, 32 259 C10.67 259, 0 248.33, 0 227 C0 178.93, 0 130.85, 0 32 C0 10.67, 10.67 0, 32 0" stroke="none" stroke-width="0" fill="#fa5252"/><path d="M32 0 C141.72 0, 251.44 0, 350.67 0 M32 0 C126.28 0, 220.56 0, 350.67 0 M350.67 0 C372 0, 382.67 10.67, 382.67 32 M350.67 0 C372 0, 382.67 10.67, 382.67 32 M382.67 32 C382.67 74.24, 382.67 116.47, 382.67 227 M382.67 32 C382.67 103.12, 382.67 174.23, 382.67 227 M382.67 227 C382.67 248.33, 372 259, 350.67 259 M382.67 227 C382.67 248.33, 372 259, 350.67 259 M350.67 259 C264.71 259, 178.76 259, 32 259 M350.67 259 C238.44 259, 126.21 259, 32 259 M32 259 C10.67 259, 0 248.33, 0 227 M32 259 C10.67 259, 0 248.33, 0 227 M0 227 C0 150.33, 0 73.67, 0 32 M0 227 C0 172.71, 0 118.41, 0 32 M0 32 C0 10.67, 10.67 0, 32 0 M0 32 C0 10.67, 10.67 0, 32 0" stroke="#1e1e1e" stroke-width="2" fill="none"/></g><g transform="translate(113.27575732245305 365.94750885650774) rotate(0 88.0576171875 20.700000000000003)"><text x="88.0576171875" y="0" font-family="Helvetica, Segoe UI Emoji" font-size="36px" fill="#1e1e1e" text-anchor="middle" style="white-space: pre;" direction="ltr" dominant-baseline="text-before-edge">Application</text></g><g stroke-linecap="round" transform="translate(1137.4625730544547 525.4179405870823) rotate(0 251.73339827007612 46.5)"><path d="M23.25 0 C137.49 0, 251.73 0, 480.22 0 C495.72 0, 503.47 7.75, 503.47 23.25 C503.47 41.23, 503.47 59.21, 503.47 69.75 C503.47 85.25, 495.72 93, 480.22 93 C328.31 93, 176.4 93, 23.25 93 C7.75 93, 0 85.25, 0 69.75 C0 59.73, 0 49.72, 0 23.25 C0 7.75, 7.75 0, 23.25 0" stroke="none" stroke-width="0" fill="#228be6"/><path d="M23.25 0 C180.59 0, 337.92 0, 480.22 0 M23.25 0 C127.73 0, 232.21 0, 480.22 0 M480.22 0 C495.72 0, 503.47 7.75, 503.47 23.25 M480.22 0 C495.72 0, 503.47 7.75, 503.47 23.25 M503.47 23.25 C503.47 39.72, 503.47 56.2, 503.47 69.75 M503.47 23.25 C503.47 33.08, 503.47 42.92, 503.47 69.75 M503.47 69.75 C503.47 85.25, 495.72 93, 480.22 93 M503.47 69.75 C503.47 85.25, 495.72 93, 480.22 93 M480.22 93 C298.95 93, 117.69 93, 23.25 93 M480.22 93 C334.85 93, 189.49 93, 23.25 93 M23.25 93 C7.75 93, 0 85.25, 0 69.75 M23.25 93 C7.75 93, 0 85.25, 0 69.75 M0 69.75 C0 51.41, 0 33.07, 0 23.25 M0 69.75 C0 51.27, 0 32.78, 0 23.25 M0 23.25 C0 7.75, 7.75 0, 23.25 0 M0 23.25 C0 7.75, 7.75 0, 23.25 0" stroke="#1e1e1e" stroke-width="2" fill="none"/></g><g transform="translate(1196.0914791370308 530.5179405870822) rotate(0 193.1044921875 41.4)"><text x="193.1044921875" y="0" font-family="Helvetica, Segoe UI Emoji" font-size="36px" fill="#1e1e1e" text-anchor="middle" style="white-space: pre;" direction="ltr" dominant-baseline="text-before-edge">UDP: </text><text x="193.1044921875" y="41.4" font-family="Helvetica, Segoe UI Emoji" font-size="36px" fill="#1e1e1e" text-anchor="middle" style="white-space: pre;" direction="ltr" dominant-baseline="text-before-edge">Quellport 67, Zielport 68</text></g><g stroke-linecap="round" transform="translate(1137.4625724091238 649.6356083939497) rotate(0 251.73339859274154 46.5)"><path d="M23.25 0 C125.29 0, 227.33 0, 480.22 0 C495.72 0, 503.47 7.75, 503.47 23.25 C503.47 40.09, 503.47 56.93, 503.47 69.75 C503.47 85.25, 495.72 93, 480.22 93 C344.13 93, 208.05 93, 23.25 93 C7.75 93, 0 85.25, 0 69.75 C0 56.93, 0 44.11, 0 23.25 C0 7.75, 7.75 0, 23.25 0" stroke="none" stroke-width="0" fill="#ff9e01"/><path d="M23.25 0 C118.77 0, 214.29 0, 480.22 0 M23.25 0 C178.65 0, 334.05 0, 480.22 0 M480.22 0 C495.72 0, 503.47 7.75, 503.47 23.25 M480.22 0 C495.72 0, 503.47 7.75, 503.47 23.25 M503.47 23.25 C503.47 41.15, 503.47 59.04, 503.47 69.75 M503.47 23.25 C503.47 35.33, 503.47 47.4, 503.47 69.75 M503.47 69.75 C503.47 85.25, 495.72 93, 480.22 93 M503.47 69.75 C503.47 85.25, 495.72 93, 480.22 93 M480.22 93 C385.33 93, 290.44 93, 23.25 93 M480.22 93 C302.06 93, 123.91 93, 23.25 93 M23.25 93 C7.75 93, 0 85.25, 0 69.75 M23.25 93 C7.75 93, 0 85.25, 0 69.75 M0 69.75 C0 56.42, 0 43.08, 0 23.25 M0 69.75 C0 59.89, 0 50.03, 0 23.25 M0 23.25 C0 7.75, 7.75 0, 23.25 0 M0 23.25 C0 7.75, 7.75 0, 23.25 0" stroke="#1e1e1e" stroke-width="2" fill="none"/></g><g transform="translate(1192.0572991268655 654.7356083939497) rotate(0 197.13867187500006 41.400000000000006)"><text x="197.138671875" y="0" font-family="Helvetica, Segoe UI Emoji" font-size="36px" fill="#1e1e1e" text-anchor="middle" style="white-space: pre;" direction="ltr" dominant-baseline="text-before-edge">Quell-Ip: 0.0.0.0</text><text x="197.138671875" y="41.4" font-family="Helvetica, Segoe UI Emoji" font-size="36px" fill="#1e1e1e" text-anchor="middle" style="white-space: pre;" direction="ltr" dominant-baseline="text-before-edge">Ziel-IP: 255.255.255.255</text></g><g stroke-linecap="round" transform="translate(1137.4625726996353 756.3858087315057) rotate(0 251.7333984474859 69.40868596072804)"><path d="M32 0 C124.08 0, 216.15 0, 471.47 0 C492.8 0, 503.47 10.67, 503.47 32 C503.47 61.62, 503.47 91.25, 503.47 106.82 C503.47 128.15, 492.8 138.82, 471.47 138.82 C383.12 138.82, 294.78 138.82, 32 138.82 C10.67 138.82, 0 128.15, 0 106.82 C0 89.73, 0 72.64, 0 32 C0 10.67, 10.67 0, 32 0" stroke="none" stroke-width="0" fill="#d050a5"/><path d="M32 0 C187.9 0, 343.8 0, 471.47 0 M32 0 C141.69 0, 251.39 0, 471.47 0 M471.47 0 C492.8 0, 503.47 10.67, 503.47 32 M471.47 0 C492.8 0, 503.47 10.67, 503.47 32 M503.47 32 C503.47 48.17, 503.47 64.34, 503.47 106.82 M503.47 32 C503.47 55.5, 503.47 79, 503.47 106.82 M503.47 106.82 C503.47 128.15, 492.8 138.82, 471.47 138.82 M503.47 106.82 C503.47 128.15, 492.8 138.82, 471.47 138.82 M471.47 138.82 C318.15 138.82, 164.83 138.82, 32 138.82 M471.47 138.82 C330.89 138.82, 190.31 138.82, 32 138.82 M32 138.82 C10.67 138.82, 0 128.15, 0 106.82 M32 138.82 C10.67 138.82, 0 128.15, 0 106.82 M0 106.82 C0 83.65, 0 60.47, 0 32 M0 106.82 C0 81.01, 0 55.2, 0 32 M0 32 C0 10.67, 10.67 0, 32 0 M0 32 C0 10.67, 10.67 0, 32 0" stroke="#1e1e1e" stroke-width="2" fill="none"/></g><g transform="translate(1147.127611772121 784.3944946922337) rotate(0 242.068359375 41.39999999999999)"><text x="242.068359375" y="0" font-family="Helvetica, Segoe UI Emoji" font-size="36px" fill="#1e1e1e" text-anchor="middle" style="white-space: pre;" direction="ltr" dominant-baseline="text-before-edge">Quell-MAC: Tatsächliche MAC</text><text x="242.068359375" y="41.4" font-family="Helvetica, Segoe UI Emoji" font-size="36px" fill="#1e1e1e" text-anchor="middle" style="white-space: pre;" direction="ltr" dominant-baseline="text-before-edge">Ziel-MAC: FF:FF:FF:FF:FF:FF</text></g><g stroke-linecap="round" transform="translate(396.2850284651141 301.0012918892602) rotate(0 191.33337402343747 45.55387120060314)"><path d="M22.78 0 C102.18 0, 181.59 0, 359.89 0 C375.07 0, 382.67 7.59, 382.67 22.78 C382.67 35.67, 382.67 48.56, 382.67 68.33 C382.67 83.52, 375.07 91.11, 359.89 91.11 C283.42 91.11, 206.95 91.11, 22.78 91.11 C7.59 91.11, 0 83.52, 0 68.33 C0 50.63, 0 32.94, 0 22.78 C0 7.59, 7.59 0, 22.78 0" stroke="none" stroke-width="0" fill="#228be6"/><path d="M22.78 0 C102.7 0, 182.63 0, 359.89 0 M22.78 0 C131.81 0, 240.83 0, 359.89 0 M359.89 0 C375.07 0, 382.67 7.59, 382.67 22.78 M359.89 0 C375.07 0, 382.67 7.59, 382.67 22.78 M382.67 22.78 C382.67 34.29, 382.67 45.81, 382.67 68.33 M382.67 22.78 C382.67 36.69, 382.67 50.61, 382.67 68.33 M382.67 68.33 C382.67 83.52, 375.07 91.11, 359.89 91.11 M382.67 68.33 C382.67 83.52, 375.07 91.11, 359.89 91.11 M359.89 91.11 C252.87 91.11, 145.86 91.11, 22.78 91.11 M359.89 91.11 C279.57 91.11, 199.26 91.11, 22.78 91.11 M22.78 91.11 C7.59 91.11, 0 83.52, 0 68.33 M22.78 91.11 C7.59 91.11, 0 83.52, 0 68.33 M0 68.33 C0 58.37, 0 48.41, 0 22.78 M0 68.33 C0 51.25, 0 34.16, 0 22.78 M0 22.78 C0 7.59, 7.59 0, 22.78 0 M0 22.78 C0 7.59, 7.59 0, 22.78 0" stroke="#1e1e1e" stroke-width="2" fill="none"/></g><g transform="translate(511.2590274885516 325.8551630898633) rotate(0 76.359375 20.69999999999999)"><text x="76.359375" y="0" font-family="Helvetica, Segoe UI Emoji" font-size="36px" fill="#1e1e1e" text-anchor="middle" style="white-space: pre;" direction="ltr" dominant-baseline="text-before-edge">Transport</text></g><g stroke-linecap="round" transform="translate(396.28502885780745 425.218959100889) rotate(0 191.33337402343747 46.500000010428856)"><path d="M23.25 0 C90.63 0, 158.02 0, 359.42 0 C374.92 0, 382.67 7.75, 382.67 23.25 C382.67 38.83, 382.67 54.42, 382.67 69.75 C382.67 85.25, 374.92 93, 359.42 93 C235.89 93, 112.35 93, 23.25 93 C7.75 93, 0 85.25, 0 69.75 C0 53.09, 0 36.43, 0 23.25 C0 7.75, 7.75 0, 23.25 0" stroke="none" stroke-width="0" fill="#ff9e01"/><path d="M23.25 0 C143.24 0, 263.23 0, 359.42 0 M23.25 0 C100.56 0, 177.87 0, 359.42 0 M359.42 0 C374.92 0, 382.67 7.75, 382.67 23.25 M359.42 0 C374.92 0, 382.67 7.75, 382.67 23.25 M382.67 23.25 C382.67 34.96, 382.67 46.66, 382.67 69.75 M382.67 23.25 C382.67 32.98, 382.67 42.72, 382.67 69.75 M382.67 69.75 C382.67 85.25, 374.92 93, 359.42 93 M382.67 69.75 C382.67 85.25, 374.92 93, 359.42 93 M359.42 93 C279.64 93, 199.86 93, 23.25 93 M359.42 93 C233.74 93, 108.06 93, 23.25 93 M23.25 93 C7.75 93, 0 85.25, 0 69.75 M23.25 93 C7.75 93, 0 85.25, 0 69.75 M0 69.75 C0 53.97, 0 38.19, 0 23.25 M0 69.75 C0 54.59, 0 39.43, 0 23.25 M0 23.25 C0 7.75, 7.75 0, 23.25 0 M0 23.25 C0 7.75, 7.75 0, 23.25 0" stroke="#1e1e1e" stroke-width="2" fill="none"/></g><g transform="translate(526.578363818745 451.0189591113178) rotate(0 61.0400390625 20.700000000000003)"><text x="61.0400390625" y="0" font-family="Helvetica, Segoe UI Emoji" font-size="36px" fill="#1e1e1e" text-anchor="middle" style="white-space: pre;" direction="ltr" dominant-baseline="text-before-edge">Internet</text></g><g stroke-linecap="round" transform="translate(396.28502840670524 531.9691591464784) rotate(0 191.33337402343747 69.40868596072805)"><path d="M32 0 C151.66 0, 271.32 0, 350.67 0 C372 0, 382.67 10.67, 382.67 32 C382.67 51.34, 382.67 70.68, 382.67 106.82 C382.67 128.15, 372 138.82, 350.67 138.82 C262.84 138.82, 175.01 138.82, 32 138.82 C10.67 138.82, 0 128.15, 0 106.82 C0 87.5, 0 68.18, 0 32 C0 10.67, 10.67 0, 32 0" stroke="none" stroke-width="0" fill="#d050a5"/><path d="M32 0 C97.11 0, 162.22 0, 350.67 0 M32 0 C149.55 0, 267.1 0, 350.67 0 M350.67 0 C372 0, 382.67 10.67, 382.67 32 M350.67 0 C372 0, 382.67 10.67, 382.67 32 M382.67 32 C382.67 48.23, 382.67 64.46, 382.67 106.82 M382.67 32 C382.67 58.3, 382.67 84.59, 382.67 106.82 M382.67 106.82 C382.67 128.15, 372 138.82, 350.67 138.82 M382.67 106.82 C382.67 128.15, 372 138.82, 350.67 138.82 M350.67 138.82 C249.76 138.82, 148.86 138.82, 32 138.82 M350.67 138.82 C247.43 138.82, 144.2 138.82, 32 138.82 M32 138.82 C10.67 138.82, 0 128.15, 0 106.82 M32 138.82 C10.67 138.82, 0 128.15, 0 106.82 M0 106.82 C0 83.06, 0 59.3, 0 32 M0 106.82 C0 85.26, 0 63.71, 0 32 M0 32 C0 10.67, 10.67 0, 32 0 M0 32 C0 10.67, 10.67 0, 32 0" stroke="#1e1e1e" stroke-width="2" fill="none"/></g><g transform="translate(491.55394930514274 580.6778451072065) rotate(0 96.064453125 20.7)"><text x="96.064453125" y="0" font-family="Helvetica, Segoe UI Emoji" font-size="36px" fill="#1e1e1e" text-anchor="middle" style="white-space: pre;" direction="ltr" dominant-baseline="text-before-edge">Netzzugang</text></g><g stroke-linecap="round" transform="translate(396.2850291574656 10) rotate(0 191.33337375919265 129.5)"><path d="M32 0 C146.6 0, 261.2 0, 350.67 0 C372 0, 382.67 10.67, 382.67 32 C382.67 105.61, 382.67 179.21, 382.67 227 C382.67 248.33, 372 259, 350.67 259 C277.9 259, 205.14 259, 32 259 C10.67 259, 0 248.33, 0 227 C0 171.48, 0 115.97, 0 32 C0 10.67, 10.67 0, 32 0" stroke="none" stroke-width="0" fill="#fa5252"/><path d="M32 0 C116.66 0, 201.32 0, 350.67 0 M32 0 C110.36 0, 188.72 0, 350.67 0 M350.67 0 C372 0, 382.67 10.67, 382.67 32 M350.67 0 C372 0, 382.67 10.67, 382.67 32 M382.67 32 C382.67 92.99, 382.67 153.98, 382.67 227 M382.67 32 C382.67 92.35, 382.67 152.7, 382.67 227 M382.67 227 C382.67 248.33, 372 259, 350.67 259 M382.67 227 C382.67 248.33, 372 259, 350.67 259 M350.67 259 C255.67 259, 160.67 259, 32 259 M350.67 259 C274.81 259, 198.95 259, 32 259 M32 259 C10.67 259, 0 248.33, 0 227 M32 259 C10.67 259, 0 248.33, 0 227 M0 227 C0 154.07, 0 81.13, 0 32 M0 227 C0 171.9, 0 116.8, 0 32 M0 32 C0 10.67, 10.67 0, 32 0 M0 32 C0 10.67, 10.67 0, 32 0" stroke="#1e1e1e" stroke-width="2" fill="none"/></g><g transform="translate(499.5607857291583 118.79999999999995) rotate(0 88.0576171875 20.69999999999999)"><text x="88.0576171875" y="0" font-family="Helvetica, Segoe UI Emoji" font-size="36px" fill="#1e1e1e" text-anchor="middle" style="white-space: pre;" direction="ltr" dominant-baseline="text-before-edge">Application</text></g></svg>