<svg version="1.1" xmlns="http://www.w3.org/2000/svg"
  viewBox="0 0 385.1507343523789 416.75852688126145" width="385.1507343523789"
  height="416.75852688126145" class="excalidraw-svg">
  <!-- svg-source:excalidraw -->

  <defs>
    <style class="style-fonts">
      @font-face {
      font-family: "Virgil";
      src: url("https://excalidraw.com/Virgil.woff2");
      }
      @font-face {
      font-family: "Cascadia";
      src: url("https://excalidraw.com/Cascadia.woff2");
      }
      @font-face {
      font-family: "Assistant";
      src: url("https://excalidraw.com/Assistant-Regular.woff2");
      }
    </style>

  </defs>
  <g stroke-linecap="round"
    transform="translate(14.289765246563434 10) rotate(0 180.43048455290773 60.03694864037817)">
    <path
      d="M30.02 0 C114.24 -2.08, 199.01 1.56, 330.84 0 C352.04 -1.92, 362.46 8.42, 360.86 30.02 C357.83 46.26, 362.44 57.1, 360.86 90.06 C359.77 111.24, 353.91 118.7, 330.84 120.07 C267.72 122.9, 206.14 122.01, 30.02 120.07 C10.85 123.64, 0.75 108.62, 0 90.06 C3.75 70.14, -0.14 58.67, 0 30.02 C-2.1 12.06, 12.14 2.59, 30.02 0"
      stroke="none" stroke-width="0" fill="#b2f2bb" />
    <path
      d="M30.02 0 C103.48 -1.92, 179.66 -0.25, 330.84 0 M30.02 0 C144.82 0.66, 260.92 0.6, 330.84 0 M330.84 0 C352.58 0.64, 361.87 11.01, 360.86 30.02 M330.84 0 C352.63 -1.79, 358.58 10.01, 360.86 30.02 M360.86 30.02 C360.65 45.01, 361.84 60.7, 360.86 90.06 M360.86 30.02 C361.71 43.23, 361.67 56.07, 360.86 90.06 M360.86 90.06 C361.13 110.46, 349.09 118.61, 330.84 120.07 M360.86 90.06 C360.75 107.82, 349.72 118.7, 330.84 120.07 M330.84 120.07 C214.94 122.61, 97.03 122.59, 30.02 120.07 M330.84 120.07 C260.9 120.62, 190.45 119.7, 30.02 120.07 M30.02 120.07 C11.66 121.21, 0.52 108.31, 0 90.06 M30.02 120.07 C8.73 118.12, -1.93 111.51, 0 90.06 M0 90.06 C1.71 73.96, 0.94 60.63, 0 30.02 M0 90.06 C-0.24 68.95, 0.12 48.03, 0 30.02 M0 30.02 C0.4 8.31, 8.52 0.34, 30.02 0 M0 30.02 C1.76 9.9, 9.51 0.34, 30.02 0"
      stroke="#2f9e44" stroke-width="2" fill="none" />
  </g>
  <g stroke-linecap="round"
    transform="translate(10 152.63346832641122) rotate(0 180.43048455290773 60.03694864037817)">
    <path
      d="M30.02 0 C133.57 5.09, 239.81 2.52, 330.84 0 C350.54 2.04, 361.33 11.16, 360.86 30.02 C364.05 54.78, 362.55 76.28, 360.86 90.06 C360.08 110.55, 347.62 118.95, 330.84 120.07 C230.25 122.03, 133.27 120.41, 30.02 120.07 C9.59 123.43, -2.53 107.67, 0 90.06 C1.84 70.29, 2.28 54.97, 0 30.02 C1.71 8.89, 10.35 -1.63, 30.02 0"
      stroke="none" stroke-width="0" fill="#b2f2bb" />
    <path
      d="M30.02 0 C135.32 2.28, 241.69 0.68, 330.84 0 M30.02 0 C104.92 -1.25, 180.91 -1.63, 330.84 0 M330.84 0 C351.25 -0.19, 361.44 8.46, 360.86 30.02 M330.84 0 C351.86 1.11, 362.42 10.38, 360.86 30.02 M360.86 30.02 C358.5 44.2, 359.65 61.01, 360.86 90.06 M360.86 30.02 C359.87 47.82, 361.36 67.03, 360.86 90.06 M360.86 90.06 C362.34 111.7, 349.98 120.28, 330.84 120.07 M360.86 90.06 C359.17 109.14, 352.95 119.63, 330.84 120.07 M330.84 120.07 C269.56 121.13, 206.87 119.85, 30.02 120.07 M330.84 120.07 C216.22 120.33, 99.73 120.61, 30.02 120.07 M30.02 120.07 C9.91 120.24, -0.34 108.99, 0 90.06 M30.02 120.07 C12.11 118.9, 2.15 107.98, 0 90.06 M0 90.06 C0.44 70.19, -1.5 55.42, 0 30.02 M0 90.06 C-0.52 73.71, 1.14 59.56, 0 30.02 M0 30.02 C1.25 11.29, 9.76 1.59, 30.02 0 M0 30.02 C0.13 10.81, 8.11 -2.29, 30.02 0"
      stroke="#2f9e44" stroke-width="2" fill="none" />
  </g>
  <g stroke-linecap="round"
    transform="translate(10.839118176022794 286.6846296005051) rotate(0 180.43048455290773 60.03694864037817)">
    <path
      d="M30.02 0 C89.28 3.85, 151.96 5.8, 330.84 0 C352.2 2.46, 360.46 11.23, 360.86 30.02 C358.79 48.46, 360.13 73.51, 360.86 90.06 C357.83 107.44, 350.14 118.66, 330.84 120.07 C214.47 125.84, 103.29 125.72, 30.02 120.07 C7.91 120.07, 2.67 108.93, 0 90.06 C2.3 66.61, 3.23 45.27, 0 30.02 C3.34 11.02, 10 3.02, 30.02 0"
      stroke="none" stroke-width="0" fill="#b2f2bb" />
    <path
      d="M30.02 0 C147.65 1.52, 265.72 1.34, 330.84 0 M30.02 0 C104.7 0.46, 177.99 1.14, 330.84 0 M330.84 0 C349.09 0.45, 358.89 8.52, 360.86 30.02 M330.84 0 C352.19 -0.91, 359.87 10.24, 360.86 30.02 M360.86 30.02 C361.98 44.6, 361.71 56.44, 360.86 90.06 M360.86 30.02 C360.07 51.81, 361.38 76, 360.86 90.06 M360.86 90.06 C359.01 109.18, 351.93 120.34, 330.84 120.07 M360.86 90.06 C359.86 109.87, 352.16 120.38, 330.84 120.07 M330.84 120.07 C231.42 122.4, 131.66 121.79, 30.02 120.07 M330.84 120.07 C239.71 120.14, 150.1 120.81, 30.02 120.07 M30.02 120.07 C10.17 118.58, 1.25 109.81, 0 90.06 M30.02 120.07 C10.02 119.81, 2.14 108.45, 0 90.06 M0 90.06 C-1 76.46, -0.77 62.69, 0 30.02 M0 90.06 C-0.19 68.51, -0.65 48.53, 0 30.02 M0 30.02 C-1.7 8.43, 11.83 0.61, 30.02 0 M0 30.02 C0.13 8.64, 8.15 -0.75, 30.02 0"
      stroke="#2f9e44" stroke-width="2" fill="none" />
  </g>
</svg>