<svg version="1.1" xmlns="http://www.w3.org/2000/svg" viewBox="0 0 141.52082403904706 395.5675720896803" width="141.52082403904706" height="395.5675720896803" class="excalidraw-svg">
  <!-- svg-source:excalidraw -->
  
  <defs>
    <style class="style-fonts">
      @font-face {
        font-family: "Virgil";
        src: url("https://excalidraw.com/Virgil.woff2");
      }
      @font-face {
        font-family: "Cascadia";
        src: url("https://excalidraw.com/Cascadia.woff2");
      }
      @font-face {
        font-family: "Assistant";
        src: url("https://excalidraw.com/Assistant-Regular.woff2");
      }
    </style>
    
  </defs>
  <g stroke-linecap="round" transform="translate(10.000000451102096 10) rotate(0 60.76041170566907 108.50000007174624)"><path d="M30.38 0 C47.96 0, 65.54 0, 91.14 0 C111.39 0, 121.52 10.13, 121.52 30.38 C121.52 73.41, 121.52 116.45, 121.52 186.62 C121.52 206.87, 111.39 217, 91.14 217 C74.42 217, 57.7 217, 30.38 217 C10.13 217, 0 206.87, 0 186.62 C0 127.67, 0 68.72, 0 30.38 C0 10.13, 10.13 0, 30.38 0" stroke="none" stroke-width="0" fill="#ff9e01"/><path d="M30.38 0 C49.08 0, 67.77 0, 91.14 0 M30.38 0 C45.04 0, 59.7 0, 91.14 0 M91.14 0 C111.39 0, 121.52 10.13, 121.52 30.38 M91.14 0 C111.39 0, 121.52 10.13, 121.52 30.38 M121.52 30.38 C121.52 68.64, 121.52 106.89, 121.52 186.62 M121.52 30.38 C121.52 76.6, 121.52 122.83, 121.52 186.62 M121.52 186.62 C121.52 206.87, 111.39 217, 91.14 217 M121.52 186.62 C121.52 206.87, 111.39 217, 91.14 217 M91.14 217 C73.1 217, 55.06 217, 30.38 217 M91.14 217 C67.56 217, 43.99 217, 30.38 217 M30.38 217 C10.13 217, 0 206.87, 0 186.62 M30.38 217 C10.13 217, 0 206.87, 0 186.62 M0 186.62 C0 124.92, 0 63.21, 0 30.38 M0 186.62 C0 126.49, 0 66.35, 0 30.38 M0 30.38 C0 10.13, 10.13 0, 30.38 0 M0 30.38 C0 10.13, 10.13 0, 30.38 0" stroke="#1e1e1e" stroke-width="2" fill="none"/></g><g transform="translate(33.74966996927128 97.80000007174624) rotate(0 37.0107421875 20.700000000000003)"><text x="37.0107421875" y="0" font-family="Helvetica, Segoe UI Emoji" font-size="36px" fill="#1e1e1e" text-anchor="middle" style="white-space: pre;" direction="ltr" dominant-baseline="text-before-edge">ARP</text></g><g stroke-linecap="round" transform="translate(10 246.7502001682242) rotate(0 60.76041201952353 69.40868596072805)"><path d="M30.38 0 C50.49 0, 70.59 0, 91.14 0 C111.39 0, 121.52 10.13, 121.52 30.38 C121.52 51.93, 121.52 73.47, 121.52 108.44 C121.52 128.69, 111.39 138.82, 91.14 138.82 C69.24 138.82, 47.33 138.82, 30.38 138.82 C10.13 138.82, 0 128.69, 0 108.44 C0 91.42, 0 74.4, 0 30.38 C0 10.13, 10.13 0, 30.38 0" stroke="none" stroke-width="0" fill="#d050a5"/><path d="M30.38 0 C43.89 0, 57.4 0, 91.14 0 M30.38 0 C49.5 0, 68.63 0, 91.14 0 M91.14 0 C111.39 0, 121.52 10.13, 121.52 30.38 M91.14 0 C111.39 0, 121.52 10.13, 121.52 30.38 M121.52 30.38 C121.52 56.01, 121.52 81.65, 121.52 108.44 M121.52 30.38 C121.52 56.81, 121.52 83.24, 121.52 108.44 M121.52 108.44 C121.52 128.69, 111.39 138.82, 91.14 138.82 M121.52 108.44 C121.52 128.69, 111.39 138.82, 91.14 138.82 M91.14 138.82 C72.62 138.82, 54.1 138.82, 30.38 138.82 M91.14 138.82 C71.67 138.82, 52.2 138.82, 30.38 138.82 M30.38 138.82 C10.13 138.82, 0 128.69, 0 108.44 M30.38 138.82 C10.13 138.82, 0 128.69, 0 108.44 M0 108.44 C0 83.09, 0 57.74, 0 30.38 M0 108.44 C0 92.04, 0 75.64, 0 30.38 M0 30.38 C0 10.13, 10.13 0, 30.38 0 M0 30.38 C0 10.13, 10.13 0, 30.38 0" stroke="#1e1e1e" stroke-width="2" fill="none"/></g><g transform="translate(18.755529207023528 295.45888612895226) rotate(0 52.0048828125 20.69999999999999)"><text x="52.0048828125" y="0" font-family="Helvetica, Segoe UI Emoji" font-size="36px" fill="#1e1e1e" text-anchor="middle" style="white-space: pre;" direction="ltr" dominant-baseline="text-before-edge">WLAN</text></g></svg>