<svg version="1.1" xmlns="http://www.w3.org/2000/svg" viewBox="0 0 369.5393883166258 307.6526321091238" width="369.5393883166258" height="307.6526321091238" class="excalidraw-svg">
  <!-- svg-source:excalidraw -->
  
  <defs>
    <style class="style-fonts">
      @font-face {
        font-family: "Virgil";
        src: url("https://excalidraw.com/Virgil.woff2");
      }
      @font-face {
        font-family: "Cascadia";
        src: url("https://excalidraw.com/Cascadia.woff2");
      }
      @font-face {
        font-family: "Assistant";
        src: url("https://excalidraw.com/Assistant-Regular.woff2");
      }
    </style>
    
  </defs>
  <g stroke-linecap="round" transform="translate(10.00000045110221 10) rotate(0 174.76969393276178 71.55023528088441)"><path d="M32 0 C110.81 0, 189.62 0, 317.54 0 C338.87 0, 349.54 10.67, 349.54 32 C349.54 53.06, 349.54 74.11, 349.54 111.1 C349.54 132.43, 338.87 143.1, 317.54 143.1 C234.56 143.1, 151.57 143.1, 32 143.1 C10.67 143.1, 0 132.43, 0 111.1 C0 88.05, 0 64.99, 0 32 C0 10.67, 10.67 0, 32 0" stroke="none" stroke-width="0" fill="#ff9e01"/><path d="M32 0 C130.5 0, 229 0, 317.54 0 M32 0 C110.75 0, 189.49 0, 317.54 0 M317.54 0 C338.87 0, 349.54 10.67, 349.54 32 M317.54 0 C338.87 0, 349.54 10.67, 349.54 32 M349.54 32 C349.54 58.42, 349.54 84.84, 349.54 111.1 M349.54 32 C349.54 51.16, 349.54 70.32, 349.54 111.1 M349.54 111.1 C349.54 132.43, 338.87 143.1, 317.54 143.1 M349.54 111.1 C349.54 132.43, 338.87 143.1, 317.54 143.1 M317.54 143.1 C217.07 143.1, 116.59 143.1, 32 143.1 M317.54 143.1 C235.75 143.1, 153.96 143.1, 32 143.1 M32 143.1 C10.67 143.1, 0 132.43, 0 111.1 M32 143.1 C10.67 143.1, 0 132.43, 0 111.1 M0 111.1 C0 81.37, 0 51.65, 0 32 M0 111.1 C0 95.13, 0 79.15, 0 32 M0 32 C0 10.67, 10.67 0, 32 0 M0 32 C0 10.67, 10.67 0, 32 0" stroke="#1e1e1e" stroke-width="2" fill="none"/></g><g transform="translate(121.75211625886402 40.1502352808844) rotate(0 63.017578125 41.39999999999999)"><text x="63.017578125" y="0" font-family="Helvetica, Segoe UI Emoji" font-size="36px" fill="#1e1e1e" text-anchor="middle" style="white-space: pre;" direction="ltr" dominant-baseline="text-before-edge">Von: A</text><text x="63.017578125" y="41.4" font-family="Helvetica, Segoe UI Emoji" font-size="36px" fill="#1e1e1e" text-anchor="middle" style="white-space: pre;" direction="ltr" dominant-baseline="text-before-edge">Nach: Z</text></g><g stroke-linecap="round" transform="translate(10 172.85067058650063) rotate(0 174.76969393276178 62.40098076131157)"><path d="M31.2 0 C143.5 0, 255.81 0, 318.34 0 C339.14 0, 349.54 10.4, 349.54 31.2 C349.54 48.16, 349.54 65.13, 349.54 93.6 C349.54 114.4, 339.14 124.8, 318.34 124.8 C259.58 124.8, 200.81 124.8, 31.2 124.8 C10.4 124.8, 0 114.4, 0 93.6 C0 80.01, 0 66.41, 0 31.2 C0 10.4, 10.4 0, 31.2 0" stroke="none" stroke-width="0" fill="#d050a5"/><path d="M31.2 0 C127 0, 222.79 0, 318.34 0 M31.2 0 C89.73 0, 148.27 0, 318.34 0 M318.34 0 C339.14 0, 349.54 10.4, 349.54 31.2 M318.34 0 C339.14 0, 349.54 10.4, 349.54 31.2 M349.54 31.2 C349.54 49.89, 349.54 68.58, 349.54 93.6 M349.54 31.2 C349.54 54.85, 349.54 78.51, 349.54 93.6 M349.54 93.6 C349.54 114.4, 339.14 124.8, 318.34 124.8 M349.54 93.6 C349.54 114.4, 339.14 124.8, 318.34 124.8 M318.34 124.8 C232.05 124.8, 145.75 124.8, 31.2 124.8 M318.34 124.8 C214.26 124.8, 110.18 124.8, 31.2 124.8 M31.2 124.8 C10.4 124.8, 0 114.4, 0 93.6 M31.2 124.8 C10.4 124.8, 0 114.4, 0 93.6 M0 93.6 C0 71.97, 0 50.33, 0 31.2 M0 93.6 C0 69.28, 0 44.96, 0 31.2 M0 31.2 C0 10.4, 10.4 0, 31.2 0 M0 31.2 C0 10.4, 10.4 0, 31.2 0" stroke="#1e1e1e" stroke-width="2" fill="none"/></g><g transform="translate(120.74137362026181 193.8516513478122) rotate(0 64.0283203125 41.4)"><text x="64.0283203125" y="0" font-family="Helvetica, Segoe UI Emoji" font-size="36px" fill="#1e1e1e" text-anchor="middle" style="white-space: pre;" direction="ltr" dominant-baseline="text-before-edge">Von: A</text><text x="64.0283203125" y="41.4" font-family="Helvetica, Segoe UI Emoji" font-size="36px" fill="#1e1e1e" text-anchor="middle" style="white-space: pre;" direction="ltr" dominant-baseline="text-before-edge">Nach: B</text></g></svg>