<svg version="1.1" xmlns="http://www.w3.org/2000/svg" viewBox="0 0 1330.2067158788975 736.8452501863669" width="1330.2067158788975" height="736.8452501863669" filter="invert(93%) hue-rotate(180deg)" class="excalidraw-svg">
  <!-- svg-source:excalidraw -->
  
  <defs>
    <style class="style-fonts">
      @font-face {
        font-family: "Virgil";
        src: url("https://excalidraw.com/Virgil.woff2");
      }
      @font-face {
        font-family: "Cascadia";
        src: url("https://excalidraw.com/Cascadia.woff2");
      }
      @font-face {
        font-family: "Assistant";
        src: url("https://excalidraw.com/Assistant-Regular.woff2");
      }
    </style>
    
  </defs>
  <g stroke-linecap="round" transform="translate(515.6320496988451 377.0600110076925) rotate(0 191.33337402343747 36.108187589337184)"><path d="M18.05 0 C99.06 -0.13, 182.17 -2.19, 364.61 0 C377.33 -2.26, 384.43 7.52, 382.67 18.05 C385.38 24.51, 382.15 31.54, 382.67 54.16 C383.53 69.15, 375.91 69.58, 364.61 72.22 C269.65 75.94, 170.4 73.94, 18.05 72.22 C3.4 72.84, 2.03 62.69, 0 54.16 C3.13 45, -2.77 35.15, 0 18.05 C1.28 3.46, 7.67 -0.92, 18.05 0" stroke="none" stroke-width="0" fill="#228be6"/><path d="M18.05 0 C147.54 -2.34, 278.65 -2.16, 364.61 0 M18.05 0 C131.13 -0.15, 243.98 -0.69, 364.61 0 M364.61 0 C378.02 -1.02, 381.02 4.63, 382.67 18.05 M364.61 0 C377.21 1.14, 381.49 5.58, 382.67 18.05 M382.67 18.05 C383.57 30.33, 383.05 42.96, 382.67 54.16 M382.67 18.05 C383.17 29.47, 382.16 39.59, 382.67 54.16 M382.67 54.16 C384.54 64.26, 375.82 73.16, 364.61 72.22 M382.67 54.16 C381.98 67.92, 378.22 73.83, 364.61 72.22 M364.61 72.22 C254.79 72.87, 146.39 71.88, 18.05 72.22 M364.61 72.22 C262.75 72.68, 160.39 72.52, 18.05 72.22 M18.05 72.22 C4.54 72.65, 0.19 67.34, 0 54.16 M18.05 72.22 C5.66 72.1, -0.32 65.36, 0 54.16 M0 54.16 C-1.95 46.31, -1.04 37.98, 0 18.05 M0 54.16 C-0.41 39.6, -0.2 26.09, 0 18.05 M0 18.05 C0.82 6.95, 4.39 -1.92, 18.05 0 M0 18.05 C-0.92 6.84, 6.29 -1.2, 18.05 0" stroke="#1e1e1e" stroke-width="2" fill="none"/></g><g transform="translate(630.6060487222825 392.46819859702964) rotate(0 76.359375 20.699999999999996)"><text x="76.359375" y="0" font-family="Helvetica, Segoe UI Emoji" font-size="36px" fill="#1e1e1e" text-anchor="middle" style="white-space: pre;" direction="ltr" dominant-baseline="text-before-edge">Transport</text></g><g stroke-linecap="round" transform="translate(515.6320500915384 481.2776782193213) rotate(0 191.33337402343747 37.374453911385615)"><path d="M18.69 0 C121.04 -0.7, 227.68 -3.89, 363.98 0 C379.69 3.35, 384.98 9.35, 382.67 18.69 C384.52 28.91, 382.17 41.61, 382.67 56.06 C384.54 66.37, 376.71 77.08, 363.98 74.75 C239.13 76.8, 117.49 78.1, 18.69 74.75 C4.59 73.72, -1.48 68.87, 0 56.06 C1.48 40.2, -3.78 25.56, 0 18.69 C-3.08 7.29, 3.13 0.78, 18.69 0" stroke="none" stroke-width="0" fill="#ff9e01"/><path d="M18.69 0 C144.12 -3.22, 269.92 -1.55, 363.98 0 M18.69 0 C105.92 1.33, 193.77 1.67, 363.98 0 M363.98 0 C375.73 -0.28, 382.81 4.77, 382.67 18.69 M363.98 0 C375.42 -1.32, 384.5 6.26, 382.67 18.69 M382.67 18.69 C383.07 33.21, 381.11 47.7, 382.67 56.06 M382.67 18.69 C382.15 32.49, 382.27 46.34, 382.67 56.06 M382.67 56.06 C383.36 68.34, 374.9 74.75, 363.98 74.75 M382.67 56.06 C381.07 66.36, 374.8 75.1, 363.98 74.75 M363.98 74.75 C268.43 76.08, 171.77 75.8, 18.69 74.75 M363.98 74.75 C241.06 73.05, 118.37 73.41, 18.69 74.75 M18.69 74.75 C7.98 76.74, 1.9 66.53, 0 56.06 M18.69 74.75 C6.95 74.84, 1.97 68.27, 0 56.06 M0 56.06 C-0.99 40.47, 0.22 29.2, 0 18.69 M0 56.06 C-0.12 42.93, -0.69 29.1, 0 18.69 M0 18.69 C0.21 4.83, 6.83 -0.92, 18.69 0 M0 18.69 C-1.01 7.33, 4.19 2.24, 18.69 0" stroke="#1e1e1e" stroke-width="2" fill="none"/></g><g transform="translate(645.9253850524759 497.9521321307069) rotate(0 61.0400390625 20.700000000000003)"><text x="61.0400390625" y="0" font-family="Helvetica, Segoe UI Emoji" font-size="36px" fill="#1e1e1e" text-anchor="middle" style="white-space: pre;" direction="ltr" dominant-baseline="text-before-edge">Internet</text></g><g stroke-linecap="round" transform="translate(515.6320496404362 588.0278782649108) rotate(0 191.33337402343747 69.40868596072804)"><path d="M32 0 C146.48 1.62, 258.49 0.5, 350.67 0 C374.33 2.14, 379.25 13.52, 382.67 32 C382.16 50.61, 380.96 71.02, 382.67 106.82 C383.02 131, 373.93 140.57, 350.67 138.82 C237.27 132.83, 127.64 132.82, 32 138.82 C11.45 135.76, -3.32 129.87, 0 106.82 C-1.63 89.18, 1.45 64.93, 0 32 C2.19 7.98, 8.63 0.73, 32 0" stroke="none" stroke-width="0" fill="#d050a5"/><path d="M32 0 C115.27 -0.79, 199.78 0.96, 350.67 0 M32 0 C127.94 -1, 223.96 -1.69, 350.67 0 M350.67 0 C371.65 1.56, 383.67 11.53, 382.67 32 M350.67 0 C370.38 -0.75, 381.33 9.29, 382.67 32 M382.67 32 C382.61 55.64, 380.72 80.64, 382.67 106.82 M382.67 32 C383.25 56.33, 382.25 79.81, 382.67 106.82 M382.67 106.82 C381.72 129.25, 372.71 137.67, 350.67 138.82 M382.67 106.82 C381.27 126.76, 370.05 138.69, 350.67 138.82 M350.67 138.82 C225.7 141.39, 103.58 142.15, 32 138.82 M350.67 138.82 C257.97 136.48, 165.85 136.91, 32 138.82 M32 138.82 C12.48 139.94, -0.71 128.06, 0 106.82 M32 138.82 C10.09 139.23, -1.89 127.38, 0 106.82 M0 106.82 C-0.4 82.72, 1.48 58.6, 0 32 M0 106.82 C0.53 76.42, 0.63 47.85, 0 32 M0 32 C-1.42 12.48, 12.53 1.28, 32 0 M0 32 C1.99 10.61, 9.9 -0.89, 32 0" stroke="#1e1e1e" stroke-width="2" fill="none"/></g><g transform="translate(610.9009705388737 636.7365642256389) rotate(0 96.064453125 20.700000000000003)"><text x="96.064453125" y="0" font-family="Helvetica, Segoe UI Emoji" font-size="36px" fill="#1e1e1e" text-anchor="middle" style="white-space: pre;" direction="ltr" dominant-baseline="text-before-edge">Netzzugang</text></g><g stroke-linecap="round" transform="translate(515.6320501318527 109.45348175981138) rotate(0 191.33337402343747 123.18432271327774)"><path d="M32 0 C121.53 3.46, 207.01 1.12, 350.67 0 C372.77 0.24, 385.38 13.07, 382.67 32 C383.99 91.36, 383.99 150.81, 382.67 214.37 C381.69 237.64, 369.75 243.1, 350.67 246.37 C268.3 243.64, 179.95 244.15, 32 246.37 C10.56 247.87, 0.82 232.92, 0 214.37 C-4.86 149.2, 0.42 81.02, 0 32 C2.54 13.63, 7.46 -2.72, 32 0" stroke="none" stroke-width="0" fill="#fa5252"/><path d="M32 0 C150.99 0.93, 267.92 2.18, 350.67 0 M32 0 C135.46 2.8, 239.44 1.95, 350.67 0 M350.67 0 C371.46 1.38, 384.46 10.49, 382.67 32 M350.67 0 C372.07 1.8, 382.72 9.2, 382.67 32 M382.67 32 C385.5 73.45, 383.3 114.11, 382.67 214.37 M382.67 32 C383.38 91.75, 381.95 152.26, 382.67 214.37 M382.67 214.37 C381.35 237.6, 370.37 246.3, 350.67 246.37 M382.67 214.37 C384.1 237.44, 370.1 245.5, 350.67 246.37 M350.67 246.37 C260.26 246.05, 167.7 247.63, 32 246.37 M350.67 246.37 C271.96 247.03, 194.57 247.7, 32 246.37 M32 246.37 C9.02 245.32, -1.84 235.65, 0 214.37 M32 246.37 C10.16 245.8, 1.77 234.52, 0 214.37 M0 214.37 C-1.45 158.53, -1.56 101.33, 0 32 M0 214.37 C-0.55 161.97, -1.16 107.98, 0 32 M0 32 C-1.7 10.66, 12.25 0.67, 32 0 M0 32 C-0.42 9.59, 10.7 -0.39, 32 0" stroke="#1e1e1e" stroke-width="2" fill="none"/></g><g transform="translate(611.8853460302902 211.9378044730891) rotate(0 95.080078125 20.700000000000003)"><text x="95.080078125" y="0" font-family="Helvetica, Segoe UI Emoji" font-size="36px" fill="#1e1e1e" text-anchor="middle" style="white-space: pre;" direction="ltr" dominant-baseline="text-before-edge">Anwendung</text></g><g stroke-linecap="round" transform="translate(53.17518967906517 109.45348187844832) rotate(0 191.33337402343747 36.108187896005276)"><path d="M18.05 0 C136.59 -4.64, 255.31 -5.23, 364.61 0 C373.78 0.69, 383.7 4.06, 382.67 18.05 C379.6 28.55, 383.73 37.87, 382.67 54.16 C379.78 63.25, 377.88 72.16, 364.61 72.22 C281.9 72.48, 204.36 70.87, 18.05 72.22 C3.08 71.78, 2.01 65.94, 0 54.16 C2.19 46.45, -1.53 34.97, 0 18.05 C1.34 8.71, 3.52 -0.21, 18.05 0" stroke="none" stroke-width="0" fill="#fa5252"/><path d="M18.05 0 C123.88 0.01, 229.56 -0.57, 364.61 0 M18.05 0 C148.43 -1.22, 280.05 -1.68, 364.61 0 M364.61 0 C376.83 -0.22, 382.94 6.79, 382.67 18.05 M364.61 0 C376.1 -1.12, 384.7 4.89, 382.67 18.05 M382.67 18.05 C383.93 29.42, 383.46 43.23, 382.67 54.16 M382.67 18.05 C383.14 25.84, 382.11 35.19, 382.67 54.16 M382.67 54.16 C384.37 67.53, 374.99 70.59, 364.61 72.22 M382.67 54.16 C380.88 67.24, 376.37 71.47, 364.61 72.22 M364.61 72.22 C275.68 73.59, 185.02 73.48, 18.05 72.22 M364.61 72.22 C271.06 71.14, 176.78 70.74, 18.05 72.22 M18.05 72.22 C7.55 72.42, -1.4 64.82, 0 54.16 M18.05 72.22 C7.57 71.64, 1.91 66.04, 0 54.16 M0 54.16 C1.28 42.4, -0.96 27.38, 0 18.05 M0 54.16 C-0.06 43.9, -0.36 33.15, 0 18.05 M0 18.05 C0.77 6.51, 7.91 1.43, 18.05 0 M0 18.05 C-2.07 6.11, 3.76 -1.4, 18.05 0" stroke="#1e1e1e" stroke-width="2" fill="none"/></g><g transform="translate(149.42848557750267 124.86166977445362) rotate(0 95.080078125 20.700000000000003)"><text x="95.080078125" y="0" font-family="Helvetica, Segoe UI Emoji" font-size="36px" fill="#1e1e1e" text-anchor="middle" style="white-space: pre;" direction="ltr" dominant-baseline="text-before-edge">Anwendung</text></g><g stroke-linecap="round" transform="translate(53.17518974827044 196.52961633927669) rotate(0 191.33337402343747 36.108187896005276)"><path d="M18.05 0 C158.54 0.76, 293.24 -0.81, 364.61 0 C377.89 2.31, 381.06 2.89, 382.67 18.05 C384.84 26.67, 381.98 39.31, 382.67 54.16 C385.56 66.27, 373.86 72.84, 364.61 72.22 C277.06 71.94, 189.24 75.78, 18.05 72.22 C9.22 75.56, 0.02 62.95, 0 54.16 C-2.83 40.97, -0.85 31.89, 0 18.05 C-3.06 9, 4.42 0.82, 18.05 0" stroke="none" stroke-width="0" fill="#fa5252"/><path d="M18.05 0 C93.14 -0.56, 166.84 -1.25, 364.61 0 M18.05 0 C132.79 -1.48, 247.35 -0.86, 364.61 0 M364.61 0 C376.46 1.62, 383.9 4.8, 382.67 18.05 M364.61 0 C375.73 1.84, 384.79 6.66, 382.67 18.05 M382.67 18.05 C381.25 27.98, 383.83 37.68, 382.67 54.16 M382.67 18.05 C381.97 30.15, 383.68 44.63, 382.67 54.16 M382.67 54.16 C382.31 65.97, 377.74 73.31, 364.61 72.22 M382.67 54.16 C381.33 68.09, 378.21 71.43, 364.61 72.22 M364.61 72.22 C263.05 72.16, 161.25 72.85, 18.05 72.22 M364.61 72.22 C266.29 70.12, 167.8 70.82, 18.05 72.22 M18.05 72.22 C6.85 73.27, 1.34 67.17, 0 54.16 M18.05 72.22 C5.19 70.96, -0.26 67.22, 0 54.16 M0 54.16 C1.49 40.14, 1.42 27.86, 0 18.05 M0 54.16 C0.18 47.42, 0.22 39.53, 0 18.05 M0 18.05 C-0.46 7.27, 6.39 -0.47, 18.05 0 M0 18.05 C-1.67 7.64, 3.93 -0.33, 18.05 0" stroke="#1e1e1e" stroke-width="2" fill="none"/></g><g transform="translate(143.44313408420794 211.93780423528196) rotate(0 101.0654296875 20.700000000000003)"><text x="101.0654296875" y="0" font-family="Helvetica, Segoe UI Emoji" font-size="36px" fill="#1e1e1e" text-anchor="middle" style="white-space: pre;" direction="ltr" dominant-baseline="text-before-edge">Presentation</text></g><g stroke-linecap="round" transform="translate(53.175190008069876 283.6057513725068) rotate(0 191.33337402343747 36.108187896005276)"><path d="M18.05 0 C137.19 3.1, 257.56 5.62, 364.61 0 C375.32 -2.75, 385.41 5.86, 382.67 18.05 C384.7 26.81, 383.53 42.52, 382.67 54.16 C385.24 67.36, 377.64 70.2, 364.61 72.22 C234.45 69.28, 99.16 69.25, 18.05 72.22 C7.55 69, -0.73 63.82, 0 54.16 C-0.1 43.59, 2.67 29.29, 0 18.05 C0.5 3.77, 7.25 -0.04, 18.05 0" stroke="none" stroke-width="0" fill="#fa5252"/><path d="M18.05 0 C105.27 -1.27, 193.01 -2.24, 364.61 0 M18.05 0 C155.67 -0.63, 293.96 -0.79, 364.61 0 M364.61 0 C375.49 1.63, 383.79 4.71, 382.67 18.05 M364.61 0 C376.03 -0.87, 381.3 7.91, 382.67 18.05 M382.67 18.05 C381.22 26.86, 384.38 35.07, 382.67 54.16 M382.67 18.05 C381.76 27.57, 382.08 37.42, 382.67 54.16 M382.67 54.16 C383.56 66.82, 376.08 73.85, 364.61 72.22 M382.67 54.16 C381.15 66.36, 377.3 71.31, 364.61 72.22 M364.61 72.22 C237.2 73.54, 110.02 75.31, 18.05 72.22 M364.61 72.22 C258.61 73.63, 151.98 73.13, 18.05 72.22 M18.05 72.22 C4.23 73.47, 1.23 64.71, 0 54.16 M18.05 72.22 C3.73 73.09, -2.11 66.3, 0 54.16 M0 54.16 C-0.77 43.62, -1.69 33.39, 0 18.05 M0 54.16 C-0.39 42.84, -0.54 29.71, 0 18.05 M0 18.05 C-0.57 6.3, 7.54 1.67, 18.05 0 M0 18.05 C-1.83 4.25, 6.1 -2.2, 18.05 0" stroke="#1e1e1e" stroke-width="2" fill="none"/></g><g transform="translate(180.47145465650738 299.0139392685121) rotate(0 64.037109375 20.7)"><text x="64.037109375" y="0" font-family="Helvetica, Segoe UI Emoji" font-size="36px" fill="#1e1e1e" text-anchor="middle" style="white-space: pre;" direction="ltr" dominant-baseline="text-before-edge">Session</text></g><g stroke-linecap="round" transform="translate(53.175189944630574 377.06001131961017) rotate(0 191.33337402343747 36.108187589337184)"><path d="M18.05 0 C106.21 -4.44, 190.92 -1.78, 364.61 0 C378.25 -1.87, 385.51 3.77, 382.67 18.05 C383.33 33.71, 381.28 47, 382.67 54.16 C384.69 62.77, 379.71 75.31, 364.61 72.22 C248.26 72.3, 133.42 72.81, 18.05 72.22 C7 73, 1.13 66.4, 0 54.16 C-0.5 45.5, -0.52 37.53, 0 18.05 C1.91 7.29, 7.79 1.06, 18.05 0" stroke="none" stroke-width="0" fill="#228be6"/><path d="M18.05 0 C143.49 -0.71, 268.99 -0.24, 364.61 0 M18.05 0 C150.31 -0.12, 281.09 -0.33, 364.61 0 M364.61 0 C375.45 0.98, 384.15 7.04, 382.67 18.05 M364.61 0 C374.95 -0.76, 384.91 7.16, 382.67 18.05 M382.67 18.05 C384.4 31.61, 384.84 42.8, 382.67 54.16 M382.67 18.05 C382.96 28.25, 383.78 36.14, 382.67 54.16 M382.67 54.16 C381.48 64.43, 375.97 72.98, 364.61 72.22 M382.67 54.16 C384.87 64.67, 376.63 71.56, 364.61 72.22 M364.61 72.22 C249.04 74.89, 133.88 75.16, 18.05 72.22 M364.61 72.22 C254.15 74.6, 144.36 73.93, 18.05 72.22 M18.05 72.22 C5.42 73.65, -0.55 66.94, 0 54.16 M18.05 72.22 C7.94 70.76, 1.28 63.93, 0 54.16 M0 54.16 C0.2 42.6, -1.21 27.23, 0 18.05 M0 54.16 C-0.13 43.36, -0.62 31.39, 0 18.05 M0 18.05 C-1.04 5.67, 5.47 -1.67, 18.05 0 M0 18.05 C0.02 4.66, 5.63 1.75, 18.05 0" stroke="#1e1e1e" stroke-width="2" fill="none"/></g><g transform="translate(168.14918896806807 392.4681989089474) rotate(0 76.359375 20.700000000000003)"><text x="76.359375" y="0" font-family="Helvetica, Segoe UI Emoji" font-size="36px" fill="#1e1e1e" text-anchor="middle" style="white-space: pre;" direction="ltr" dominant-baseline="text-before-edge">Transport</text></g><g stroke-linecap="round" transform="translate(53.17518954579373 481.2776783268422) rotate(0 191.33337402343747 37.37445391138563)"><path d="M18.69 0 C99.66 -2.87, 185.33 -2.56, 363.98 0 C373.64 -0.77, 385.94 6.54, 382.67 18.69 C384.24 28.9, 386.41 41, 382.67 56.06 C382.27 68, 377.14 78.24, 363.98 74.75 C243.66 75.52, 124.88 76.21, 18.69 74.75 C4.7 74.05, 3.5 70.63, 0 56.06 C-1.9 47.85, -1.59 36.28, 0 18.69 C0.11 8.61, 8.16 -3.29, 18.69 0" stroke="none" stroke-width="0" fill="#ff9e01"/><path d="M18.69 0 C116.17 2.8, 214.58 3.09, 363.98 0 M18.69 0 C127.91 -0.04, 237.94 0.43, 363.98 0 M363.98 0 C375.88 1.91, 380.97 8.06, 382.67 18.69 M363.98 0 C377.61 2, 380.95 5.34, 382.67 18.69 M382.67 18.69 C382.77 32.97, 381.1 46.47, 382.67 56.06 M382.67 18.69 C382.52 29.05, 382.23 38.91, 382.67 56.06 M382.67 56.06 C382.41 67.35, 376.53 75.29, 363.98 74.75 M382.67 56.06 C381.53 66.87, 374.24 75.35, 363.98 74.75 M363.98 74.75 C254.65 72.44, 147.27 73.6, 18.69 74.75 M363.98 74.75 C262.05 74.14, 159.6 74.01, 18.69 74.75 M18.69 74.75 C7.38 73.2, 0.8 66.62, 0 56.06 M18.69 74.75 C4.75 75.12, -0.18 69.77, 0 56.06 M0 56.06 C0.74 48.23, -1.71 40.7, 0 18.69 M0 56.06 C0.33 45.47, -0.47 35.79, 0 18.69 M0 18.69 C-1.09 4.29, 4.49 -1.8, 18.69 0 M0 18.69 C-2.18 6.84, 7.9 1.95, 18.69 0" stroke="#1e1e1e" stroke-width="2" fill="none"/></g><g transform="translate(154.46461825673123 497.9521322382278) rotate(0 90.0439453125 20.700000000000003)"><text x="90.0439453125" y="0" font-family="Helvetica, Segoe UI Emoji" font-size="36px" fill="#1e1e1e" text-anchor="middle" style="white-space: pre;" direction="ltr" dominant-baseline="text-before-edge">Vermittlung</text></g><g stroke-linecap="round" transform="translate(53.17518952279215 588.0278781644251) rotate(0 191.33337402343747 31.505570077607103)"><path d="M15.75 0 C101.95 -3.1, 189.69 -4.26, 366.91 0 C377.75 -2.51, 385.79 7.78, 382.67 15.75 C384.48 26.71, 382.01 32.63, 382.67 47.26 C384.14 58.91, 376.1 60.49, 366.91 63.01 C289.95 61.2, 209.73 65.3, 15.75 63.01 C6.85 61.52, -2.08 57.8, 0 47.26 C3.39 40.61, 0.49 28.85, 0 15.75 C1.64 1.9, 3.1 0.96, 15.75 0" stroke="none" stroke-width="0" fill="#d050a5"/><path d="M15.75 0 C144.07 1.94, 272.16 1.66, 366.91 0 M15.75 0 C118.53 -0.44, 221.36 -0.43, 366.91 0 M366.91 0 C379.39 0.53, 383.29 3.52, 382.67 15.75 M366.91 0 C378.8 1.45, 383.35 3.63, 382.67 15.75 M382.67 15.75 C383.93 28.62, 382.54 37.14, 382.67 47.26 M382.67 15.75 C381.63 27.29, 382.74 40.12, 382.67 47.26 M382.67 47.26 C384.4 57.06, 379.29 63.6, 366.91 63.01 M382.67 47.26 C383.67 60.05, 375.73 61.24, 366.91 63.01 M366.91 63.01 C277.87 64.12, 190.41 64.55, 15.75 63.01 M366.91 63.01 C275.91 62.16, 185.04 61.89, 15.75 63.01 M15.75 63.01 C3.48 63.07, -1.28 59.45, 0 47.26 M15.75 63.01 C3.58 63.38, -1.46 57.17, 0 47.26 M0 47.26 C0.47 33.94, -0.66 24.86, 0 15.75 M0 47.26 C0.26 39.74, -0.29 32.42, 0 15.75 M0 15.75 C-0.18 4.39, 5.02 -1.85, 15.75 0 M0 15.75 C-1.68 6.02, 3.73 -0.61, 15.75 0" stroke="#1e1e1e" stroke-width="2" fill="none"/></g><g transform="translate(163.45582917122965 598.8334482420323) rotate(0 81.052734375 20.700000000000003)"><text x="81.052734375" y="0" font-family="Helvetica, Segoe UI Emoji" font-size="36px" fill="#1e1e1e" text-anchor="middle" style="white-space: pre;" direction="ltr" dominant-baseline="text-before-edge">Sicherung</text></g><g stroke-linecap="round" transform="translate(53.17518945075119 663.8341098935449) rotate(0 191.33337402343747 31.505570077607103)"><path d="M15.75 0 C141.06 3.57, 265.68 4.88, 366.91 0 C375.54 0.11, 383.34 2.82, 382.67 15.75 C380.3 22.95, 383.85 30.5, 382.67 47.26 C380.56 59.51, 377.35 64.86, 366.91 63.01 C265.16 64.58, 164.83 61.99, 15.75 63.01 C1.76 62.09, 2.4 55.67, 0 47.26 C2.22 33.55, -3.27 23.38, 0 15.75 C1.84 7.06, 3.27 -0.95, 15.75 0" stroke="none" stroke-width="0" fill="#d050a5"/><path d="M15.75 0 C105.25 1.92, 195.03 0.08, 366.91 0 M15.75 0 C117.69 1.26, 220.57 0.65, 366.91 0 M366.91 0 C378.94 -0.31, 381.87 7.19, 382.67 15.75 M366.91 0 C377.81 2.23, 381.29 3.74, 382.67 15.75 M382.67 15.75 C384.28 24.05, 382.31 27.9, 382.67 47.26 M382.67 15.75 C381.7 25.74, 383.51 36.49, 382.67 47.26 M382.67 47.26 C382.98 58.42, 377.41 61.47, 366.91 63.01 M382.67 47.26 C383.48 57.59, 379.71 61.79, 366.91 63.01 M366.91 63.01 C260.48 62.4, 154.28 61.37, 15.75 63.01 M366.91 63.01 C295.44 62.78, 222.85 62.39, 15.75 63.01 M15.75 63.01 C4.81 63.91, -1.37 58.14, 0 47.26 M15.75 63.01 C3.11 64.22, 1.83 56.42, 0 47.26 M0 47.26 C-0.74 42.37, -1.73 34.41, 0 15.75 M0 47.26 C1.04 36.39, 0.06 23.37, 0 15.75 M0 15.75 C-0.53 4.77, 5.62 -1.72, 15.75 0 M0 15.75 C-1.92 4.34, 6.59 0.82, 15.75 0" stroke="#1e1e1e" stroke-width="2" fill="none"/></g><g transform="translate(126.42750878668869 674.639679971152) rotate(0 118.0810546875 20.69999999999999)"><text x="118.0810546875" y="0" font-family="Helvetica, Segoe UI Emoji" font-size="36px" fill="#1e1e1e" text-anchor="middle" style="white-space: pre;" direction="ltr" dominant-baseline="text-before-edge">Bitübertragung</text></g><g transform="translate(156.0507280153601 10) rotate(0 90.0263671875 20.69999999999999)"><text x="0" y="0" font-family="Helvetica, Segoe UI Emoji" font-size="36px" fill="#1e1e1e" text-anchor="start" style="white-space: pre;" direction="ltr" dominant-baseline="text-before-edge">OSI-Modell</text></g><g transform="translate(591.5075880684866 10.000000093432561) rotate(0 117.0263671875 20.69999999999999)"><text x="0" y="0" font-family="Helvetica, Segoe UI Emoji" font-size="36px" fill="#1e1e1e" text-anchor="start" style="white-space: pre;" direction="ltr" dominant-baseline="text-before-edge">TCP/IP-Modell</text></g><g transform="translate(952.0153096288975 10.000000547810373) rotate(0 184.095703125 20.69999999999999)"><text x="0" y="0" font-family="Helvetica, Segoe UI Emoji" font-size="36px" fill="#1e1e1e" text-anchor="start" style="white-space: pre;" direction="ltr" dominant-baseline="text-before-edge">Beispiele für Protokolle</text></g><g stroke-linecap="round" transform="translate(978.0889100829768 588.0278781673761) rotate(0 158.02210281030113 69.40868596072804)"><path d="M32 0 C128.14 -2.04, 225.2 -0.26, 284.04 0 C306.91 1.42, 313.62 10.1, 316.04 32 C314.85 58.68, 313.06 88.18, 316.04 106.82 C314.69 127.21, 302.23 139.35, 284.04 138.82 C185.59 136.21, 82.97 138.46, 32 138.82 C10.1 142.27, -3.42 130.11, 0 106.82 C1.53 89.46, -2.39 64.3, 0 32 C2.01 10.48, 11.84 3.31, 32 0" stroke="none" stroke-width="0" fill="#d050a5"/><path d="M32 0 C132.98 -0.93, 231.74 -1.11, 284.04 0 M32 0 C103.2 -0.89, 176.11 -0.2, 284.04 0 M284.04 0 C305.57 0.48, 317.75 11.55, 316.04 32 M284.04 0 C304.76 0.24, 317.82 9.25, 316.04 32 M316.04 32 C315.6 52.34, 316.47 69.44, 316.04 106.82 M316.04 32 C314.76 54.66, 316.12 74.77, 316.04 106.82 M316.04 106.82 C315.03 127.52, 307.07 137.65, 284.04 138.82 M316.04 106.82 C315.53 129.94, 305.52 136.72, 284.04 138.82 M284.04 138.82 C221.14 141.38, 156.97 139.05, 32 138.82 M284.04 138.82 C227.97 139.16, 173.27 140.53, 32 138.82 M32 138.82 C11.73 139.56, -1.44 126.61, 0 106.82 M32 138.82 C12.81 139.54, -1.95 129.17, 0 106.82 M0 106.82 C1.43 91.16, -2.34 76.51, 0 32 M0 106.82 C0.26 77.12, -0.03 48.62, 0 32 M0 32 C1.27 10.8, 10.15 0.49, 32 0 M0 32 C-0.76 11.74, 8.66 0.86, 32 0" stroke="#1e1e1e" stroke-width="2" fill="none"/></g><g transform="translate(1001.0582785182779 636.7365641281042) rotate(0 135.052734375 20.700000000000003)"><text x="135.052734375" y="0" font-family="Helvetica, Segoe UI Emoji" font-size="36px" fill="#1e1e1e" text-anchor="middle" style="white-space: pre;" direction="ltr" dominant-baseline="text-before-edge">Ethernet / WLAN</text></g><g stroke-linecap="round" transform="translate(978.0889097864615 481.2776779252981) rotate(0 158.02210295855878 37.37445391138563)"><path d="M18.69 0 C101.28 3.34, 177.35 0.93, 297.36 0 C307.57 -1.19, 312.69 4.18, 316.04 18.69 C313.28 32.77, 318.02 48.18, 316.04 56.06 C313.09 70.61, 309.45 72.88, 297.36 74.75 C210.65 75.53, 121.81 77.71, 18.69 74.75 C9.28 71.37, 0.96 65.72, 0 56.06 C-4.08 47.56, -1.39 42.37, 0 18.69 C-2.19 4.93, 9.36 2.71, 18.69 0" stroke="none" stroke-width="0" fill="#ff9e01"/><path d="M18.69 0 C103.91 -0.9, 188.63 -0.99, 297.36 0 M18.69 0 C115.21 -0.46, 211.91 -0.91, 297.36 0 M297.36 0 C311.15 1.43, 314.13 7.09, 316.04 18.69 M297.36 0 C308.94 2.09, 317.62 6, 316.04 18.69 M316.04 18.69 C315.41 26.27, 316.98 38.04, 316.04 56.06 M316.04 18.69 C315.18 29.16, 315.58 38.16, 316.04 56.06 M316.04 56.06 C316.03 69.08, 311.79 74.27, 297.36 74.75 M316.04 56.06 C314.57 67.62, 310.87 75.62, 297.36 74.75 M297.36 74.75 C199.8 73.43, 103.42 74.55, 18.69 74.75 M297.36 74.75 C197.61 76.71, 98.44 76.58, 18.69 74.75 M18.69 74.75 C6.74 74.92, 0.69 69.03, 0 56.06 M18.69 74.75 C4.8 74.67, -2.03 70.17, 0 56.06 M0 56.06 C0.36 47.39, 0.39 41.13, 0 18.69 M0 56.06 C0.3 46.24, -0.81 37.48, 0 18.69 M0 18.69 C0.29 5.91, 4.35 0.74, 18.69 0 M0 18.69 C1.53 5.94, 5.02 -0.04, 18.69 0" stroke="#1e1e1e" stroke-width="2" fill="none"/></g><g transform="translate(1119.1041768075202 497.95213183668375) rotate(0 17.0068359375 20.700000000000003)"><text x="17.0068359375" y="0" font-family="Helvetica, Segoe UI Emoji" font-size="36px" fill="#1e1e1e" text-anchor="middle" style="white-space: pre;" direction="ltr" dominant-baseline="text-before-edge">IP</text></g><g stroke-linecap="round" transform="translate(978.0889094321719 377.06001118636686) rotate(0 87.5073111357035 36.10818750279175)"><path d="M18.05 0 C47.22 -0.43, 80.85 4.17, 156.96 0 C167.78 -0.57, 173.2 7.38, 175.01 18.05 C176.56 32.12, 175.62 38.61, 175.01 54.16 C172.28 65.63, 167.55 75.04, 156.96 72.22 C110.88 73.89, 64.9 73.88, 18.05 72.22 C4.35 74.67, -2.13 64.04, 0 54.16 C-0.01 42.64, 2.95 35.92, 0 18.05 C-2.25 3.07, 3.28 2.85, 18.05 0" stroke="none" stroke-width="0" fill="#228be6"/><path d="M18.05 0 C50.67 0.11, 81.69 -3.09, 156.96 0 M18.05 0 C62.71 -0.76, 108.67 -1.16, 156.96 0 M156.96 0 C169.54 1.48, 174.32 6.68, 175.01 18.05 M156.96 0 C169.07 1.86, 173.13 3.78, 175.01 18.05 M175.01 18.05 C176.39 27.83, 174.78 38.45, 175.01 54.16 M175.01 18.05 C174.38 28.58, 174.83 39.38, 175.01 54.16 M175.01 54.16 C173.66 67.74, 168.15 71.48, 156.96 72.22 M175.01 54.16 C174.05 68.37, 168.1 72.02, 156.96 72.22 M156.96 72.22 C127.29 70.88, 97.21 71.67, 18.05 72.22 M156.96 72.22 C118 72.79, 80.65 72.43, 18.05 72.22 M18.05 72.22 C6.36 73.82, 0.43 64.74, 0 54.16 M18.05 72.22 C8.25 73.36, 1.28 66.67, 0 54.16 M0 54.16 C0.98 45.65, 0.09 35.86, 0 18.05 M0 54.16 C-0.33 44.22, -0.19 33.57, 0 18.05 M0 18.05 C0.13 4.58, 6.04 -1.04, 18.05 0 M0 18.05 C-0.88 6.49, 4.18 1.98, 18.05 0" stroke="#1e1e1e" stroke-width="2" fill="none"/></g><g transform="translate(1029.5962205678754 392.4681986891586) rotate(0 36 20.700000000000003)"><text x="36" y="0" font-family="Helvetica, Segoe UI Emoji" font-size="36px" fill="#1e1e1e" text-anchor="middle" style="white-space: pre;" direction="ltr" dominant-baseline="text-before-edge">TCP</text></g><g stroke-linecap="round" transform="translate(1178.3748452652317 377.060011217069) rotate(0 57.87913521917369 36.10818750279175)"><path d="M18.05 0 C44.58 1.4, 63.58 -3.3, 97.7 0 C108.65 2.84, 114.58 6.74, 115.76 18.05 C116.81 25.04, 114.96 39.91, 115.76 54.16 C117.67 64.77, 108.35 73.28, 97.7 72.22 C72.82 69.3, 45.26 72.46, 18.05 72.22 C4.79 72.59, 1.04 63.42, 0 54.16 C-2.68 40.55, 1.84 30.39, 0 18.05 C-1.01 9.15, 5.74 -1.49, 18.05 0" stroke="none" stroke-width="0" fill="#228be6"/><path d="M18.05 0 C37.03 0.32, 53.34 -0.57, 97.7 0 M18.05 0 C35.77 0.32, 51.95 0.12, 97.7 0 M97.7 0 C108.51 1.31, 117.52 7.72, 115.76 18.05 M97.7 0 C110.19 0.11, 116.27 3.77, 115.76 18.05 M115.76 18.05 C114.81 30.41, 116.09 40.3, 115.76 54.16 M115.76 18.05 C116.07 28.89, 115.7 38.7, 115.76 54.16 M115.76 54.16 C116.68 66.83, 111.58 71.01, 97.7 72.22 M115.76 54.16 C115.71 66.54, 109.41 73.2, 97.7 72.22 M97.7 72.22 C69.42 70.95, 38.3 73.16, 18.05 72.22 M97.7 72.22 C81.1 71.32, 62.62 72.52, 18.05 72.22 M18.05 72.22 C4.15 72.9, 1.04 64.76, 0 54.16 M18.05 72.22 C5.46 74.43, -1.19 65.38, 0 54.16 M0 54.16 C1.17 41.99, -0.01 26.31, 0 18.05 M0 54.16 C0.71 44.15, 0.03 33.29, 0 18.05 M0 18.05 C0.82 7.84, 5.82 -0.12, 18.05 0 M0 18.05 C1.1 8.22, 4.84 2.24, 18.05 0" stroke="#1e1e1e" stroke-width="2" fill="none"/></g><g transform="translate(1198.2500742344052 392.46819871986077) rotate(0 38.00390625 20.699999999999996)"><text x="38.00390625" y="0" font-family="Helvetica, Segoe UI Emoji" font-size="36px" fill="#1e1e1e" text-anchor="middle" style="white-space: pre;" direction="ltr" dominant-baseline="text-before-edge">UDP</text></g><g stroke-linecap="round" transform="translate(882.33166593756 206.01868443715256) rotate(270 122.78034320007532 27.023099872848746)"><path d="M13.51 0 C99.75 2.81, 182.38 5.1, 232.05 0 C244.23 1.26, 243.47 3.67, 245.56 13.51 C248.58 17.22, 245.09 22.15, 245.56 40.53 C242.63 47.23, 242.46 56.55, 232.05 54.05 C152.46 55.9, 64.18 56.19, 13.51 54.05 C5.33 51.99, 0.15 52.37, 0 40.53 C2.81 35.6, 2.78 22.24, 0 13.51 C-1.89 1.19, 5.32 0.25, 13.51 0" stroke="none" stroke-width="0" fill="#fa5252"/><path d="M13.51 0 C76.11 0.16, 143.23 0.12, 232.05 0 M13.51 0 C82.44 0.15, 151.69 0.12, 232.05 0 M232.05 0 C239.37 -1.34, 245.25 5.83, 245.56 13.51 M232.05 0 C239.55 1.9, 246.29 3.64, 245.56 13.51 M245.56 13.51 C245.76 22.25, 244.89 35.04, 245.56 40.53 M245.56 13.51 C244.73 23.78, 245.53 34.41, 245.56 40.53 M245.56 40.53 C246.46 49.49, 239.99 54.38, 232.05 54.05 M245.56 40.53 C246.04 49.52, 241.95 54.28, 232.05 54.05 M232.05 54.05 C172.43 54.56, 113.48 56.22, 13.51 54.05 M232.05 54.05 C146.57 54.31, 61.95 54.05, 13.51 54.05 M13.51 54.05 C2.97 53.68, -0.77 50.05, 0 40.53 M13.51 54.05 C6.68 54.33, 0.32 47.85, 0 40.53 M0 40.53 C-0.43 32.39, 0.79 25.6, 0 13.51 M0 40.53 C1 33.66, 0.54 25.49, 0 13.51 M0 13.51 C-0.79 3.11, 3.23 0.34, 13.51 0 M0 13.51 C0.73 4.59, 3.92 -1.68, 13.51 0" stroke="#1e1e1e" stroke-width="2" fill="none"/></g><g transform="translate(946.1110325751354 212.3417843100013) rotate(270 59.0009765625 20.700000000000003)"><text x="59.0009765625" y="0" font-family="Helvetica, Segoe UI Emoji" font-size="36px" fill="#1e1e1e" text-anchor="middle" style="white-space: pre;" direction="ltr" dominant-baseline="text-before-edge">HTTPS</text></g><g stroke-linecap="round" transform="translate(942.8158769183431 206.01868409294525) rotate(270 122.78034320007521 27.023099872848746)"><path d="M13.51 0 C75.91 4.85, 134.9 0.27, 232.05 0 C238.42 -1.31, 243.03 3.89, 245.56 13.51 C243.69 25.6, 243.25 30.35, 245.56 40.53 C242.35 49.96, 238.02 55.15, 232.05 54.05 C161.96 55.5, 95.28 54.86, 13.51 54.05 C6.93 50.6, 0.43 46.38, 0 40.53 C3.26 31.36, 2.11 23.61, 0 13.51 C-3.41 4.5, 7.6 0.25, 13.51 0" stroke="none" stroke-width="0" fill="#fa5252"/><path d="M13.51 0 C86.41 0.55, 159.75 -0.97, 232.05 0 M13.51 0 C90.83 1.48, 168.07 -0.03, 232.05 0 M232.05 0 C241.76 1.48, 244.03 6.13, 245.56 13.51 M232.05 0 C240.18 -0.05, 245.4 3.45, 245.56 13.51 M245.56 13.51 C245.98 20.5, 246.11 22.73, 245.56 40.53 M245.56 13.51 C246.48 22.59, 246.51 32.13, 245.56 40.53 M245.56 40.53 C244.72 49.96, 239.12 55.82, 232.05 54.05 M245.56 40.53 C245.65 49.42, 240.97 53.19, 232.05 54.05 M232.05 54.05 C153.06 51.95, 73.78 53.59, 13.51 54.05 M232.05 54.05 C187.13 55.52, 142.09 56.41, 13.51 54.05 M13.51 54.05 C6.31 54.91, 0.38 49.63, 0 40.53 M13.51 54.05 C4.75 54.66, 0.68 50.49, 0 40.53 M0 40.53 C0.78 34.6, -2.03 24.88, 0 13.51 M0 40.53 C-0.64 30.73, -0.98 20.88, 0 13.51 M0 13.51 C0.21 4.71, 5.75 1.66, 13.51 0 M0 13.51 C-0.8 4.61, 3.25 -1.62, 13.51 0" stroke="#1e1e1e" stroke-width="2" fill="none"/></g><g transform="translate(962.5796185559183 212.34178396579398) rotate(270 103.0166015625 20.700000000000003)"><text x="103.0166015625" y="0" font-family="Helvetica, Segoe UI Emoji" font-size="36px" fill="#1e1e1e" text-anchor="middle" style="white-space: pre;" direction="ltr" dominant-baseline="text-before-edge">SMTP / POP</text></g><g stroke-linecap="round" transform="translate(1003.3000882481336 206.01868460358403) rotate(270 122.78034320007521 27.02309987284869)"><path d="M13.51 0 C64.54 -1.31, 113.48 -1.93, 232.05 0 C243.19 -0.25, 243.05 7.88, 245.56 13.51 C248.75 26.2, 247.15 32.15, 245.56 40.53 C247.34 49.2, 239.68 53.76, 232.05 54.05 C172.15 52.59, 118.32 49.62, 13.51 54.05 C1.15 53.78, 2.06 49.13, 0 40.53 C-2.18 30.47, -1.4 23.6, 0 13.51 C1.42 2.43, 4.11 -2.76, 13.51 0" stroke="none" stroke-width="0" fill="#fa5252"/><path d="M13.51 0 C90.09 -0.97, 166.15 1.4, 232.05 0 M13.51 0 C83.39 -0.28, 152.28 1.12, 232.05 0 M232.05 0 C240.52 1.63, 245.59 5.44, 245.56 13.51 M232.05 0 C239.24 -0.58, 247.12 6.3, 245.56 13.51 M245.56 13.51 C246.4 20.62, 244.44 25.93, 245.56 40.53 M245.56 13.51 C245.33 21.85, 245.41 29.89, 245.56 40.53 M245.56 40.53 C244.95 50.82, 239.57 52.37, 232.05 54.05 M245.56 40.53 C246.04 48.53, 243.25 55.88, 232.05 54.05 M232.05 54.05 C168.37 52.34, 106.76 52.01, 13.51 54.05 M232.05 54.05 C168.94 53.93, 107.06 53.45, 13.51 54.05 M13.51 54.05 C3.61 55.87, 1.23 48.57, 0 40.53 M13.51 54.05 C4.17 52.26, 2.02 49.98, 0 40.53 M0 40.53 C-0.56 30.42, 0.01 21.2, 0 13.51 M0 40.53 C-0.74 31.78, -0.7 23.04, 0 13.51 M0 13.51 C0.91 4.54, 4.95 1.39, 13.51 0 M0 13.51 C-0.05 3.31, 3.78 -2.16, 13.51 0" stroke="#1e1e1e" stroke-width="2" fill="none"/></g><g transform="translate(1089.0696892607089 212.34178447643274) rotate(270 37.0107421875 20.700000000000003)"><text x="37.0107421875" y="0" font-family="Helvetica, Segoe UI Emoji" font-size="36px" fill="#1e1e1e" text-anchor="middle" style="white-space: pre;" direction="ltr" dominant-baseline="text-before-edge">SSH</text></g><g stroke-linecap="round" transform="translate(1082.617602303459 204.99558435039654) rotate(270 122.78034320007521 27.02309987284869)"><path d="M13.51 0 C68.03 5.56, 121.79 5.82, 232.05 0 C244.49 -0.83, 247.22 3.21, 245.56 13.51 C243.69 19.62, 245.05 27.41, 245.56 40.53 C244.97 50.88, 238.89 51.57, 232.05 54.05 C181.25 54.6, 130.58 55.39, 13.51 54.05 C5.83 52.51, 3.47 47.3, 0 40.53 C-2.83 34.68, -0.69 24.21, 0 13.51 C0.1 5.17, 4.11 -1.34, 13.51 0" stroke="none" stroke-width="0" fill="#fa5252"/><path d="M13.51 0 C63.88 -1.92, 117.82 -0.81, 232.05 0 M13.51 0 C82.6 -1.27, 151.05 -1.3, 232.05 0 M232.05 0 C240.78 0.38, 244.77 5.28, 245.56 13.51 M232.05 0 C241.36 0.8, 245.7 3.96, 245.56 13.51 M245.56 13.51 C245.85 20.35, 245.78 26.2, 245.56 40.53 M245.56 13.51 C244.88 24.27, 246.58 34.08, 245.56 40.53 M245.56 40.53 C247.5 51.3, 242.99 54.2, 232.05 54.05 M245.56 40.53 C247.33 50.36, 242.38 54.51, 232.05 54.05 M232.05 54.05 C185.13 52.95, 136.08 53.84, 13.51 54.05 M232.05 54.05 C157.26 53.88, 81.08 54.12, 13.51 54.05 M13.51 54.05 C5.22 55.66, -1.89 47.94, 0 40.53 M13.51 54.05 C3.88 53.17, -1.57 51.21, 0 40.53 M0 40.53 C-1.48 33.12, -1.95 24.87, 0 13.51 M0 40.53 C-0.2 33.86, -0.71 27.95, 0 13.51 M0 13.51 C-1.91 4.99, 4.8 -1.97, 13.51 0 M0 13.51 C0.63 4.96, 2.77 2.17, 13.51 0" stroke="#1e1e1e" stroke-width="2" fill="none"/></g><g transform="translate(1154.3950158160342 211.3186842232452) rotate(270 51.0029296875 20.700000000000003)"><text x="51.0029296875" y="0" font-family="Helvetica, Segoe UI Emoji" font-size="36px" fill="#1e1e1e" text-anchor="middle" style="white-space: pre;" direction="ltr" dominant-baseline="text-before-edge">DHCP</text></g><g stroke-linecap="round" transform="translate(1145.3527720651637 206.01868433550436) rotate(270 122.78034320007521 26.00000000000003)"><path d="M13 0 C74.26 -2.43, 132.5 -2, 232.56 0 C240.33 2.1, 245.19 1.3, 245.56 13 C244.43 20.67, 243.46 28.46, 245.56 39 C246.14 50.49, 241.69 48.73, 232.56 52 C167.47 53.91, 99.59 52.2, 13 52 C4.36 55.01, -2.84 46.16, 0 39 C-3.19 32.13, 2.49 20.29, 0 13 C-0.1 6.34, 4.21 -1.59, 13 0" stroke="none" stroke-width="0" fill="#fa5252"/><path d="M13 0 C80.63 -0.35, 147.85 -0.76, 232.56 0 M13 0 C88.36 1.83, 164.05 1.61, 232.56 0 M232.56 0 C242.64 1.6, 245.43 3.13, 245.56 13 M232.56 0 C239.13 -0.33, 243.66 3.71, 245.56 13 M245.56 13 C246.89 19.88, 243.79 27.75, 245.56 39 M245.56 13 C245.96 22.43, 245.49 32.21, 245.56 39 M245.56 39 C246.56 45.83, 240.32 53.06, 232.56 52 M245.56 39 C246.35 45.6, 241.16 53.51, 232.56 52 M232.56 52 C175.73 50.78, 118.6 51.77, 13 52 M232.56 52 C154.55 54.48, 76.8 54.41, 13 52 M13 52 C4.65 51.66, -0.51 48.26, 0 39 M13 52 C3.28 50.38, -0.27 48.46, 0 39 M0 39 C1.52 30.29, 1.43 25.11, 0 13 M0 39 C-0.17 34.34, 0.41 28.94, 0 13 M0 13 C0.25 5.59, 5.76 1.58, 13 0 M0 13 C0.83 6.22, 6.12 0.53, 13 0" stroke="#1e1e1e" stroke-width="2" fill="none"/></g><g transform="translate(1230.1028418277388 211.31868433550437) rotate(270 38.0302734375 20.700000000000003)"><text x="38.0302734375" y="0" font-family="Helvetica, Segoe UI Emoji" font-size="36px" fill="#1e1e1e" text-anchor="middle" style="white-space: pre;" direction="ltr" dominant-baseline="text-before-edge">VoIP</text></g><g transform="translate(10.00000074958416 126.00738758365867) rotate(0 10.0107421875 20.700000000000003)"><text x="0" y="0" font-family="Helvetica, Segoe UI Emoji" font-size="36px" fill="#1e1e1e" text-anchor="start" style="white-space: pre;" direction="ltr" dominant-baseline="text-before-edge">7</text></g><g transform="translate(10.000001121359446 211.31868409926233) rotate(0 10.0107421875 20.700000000000003)"><text x="0" y="0" font-family="Helvetica, Segoe UI Emoji" font-size="36px" fill="#1e1e1e" text-anchor="start" style="white-space: pre;" direction="ltr" dominant-baseline="text-before-edge">6</text></g><g transform="translate(10.000001924584353 299.01393869062883) rotate(0 10.0107421875 20.7)"><text x="0" y="0" font-family="Helvetica, Segoe UI Emoji" font-size="36px" fill="#1e1e1e" text-anchor="start" style="white-space: pre;" direction="ltr" dominant-baseline="text-before-edge">5</text></g><g transform="translate(10.0000019396673 392.46819778147477) rotate(0 10.0107421875 20.7)"><text x="0" y="0" font-family="Helvetica, Segoe UI Emoji" font-size="36px" fill="#1e1e1e" text-anchor="start" style="white-space: pre;" direction="ltr" dominant-baseline="text-before-edge">4</text></g><g transform="translate(10.00000263661616 497.95213250928373) rotate(0 10.0107421875 20.699999999999996)"><text x="0" y="0" font-family="Helvetica, Segoe UI Emoji" font-size="36px" fill="#1e1e1e" text-anchor="start" style="white-space: pre;" direction="ltr" dominant-baseline="text-before-edge">3</text></g><g transform="translate(10.000003121359327 598.833447812682) rotate(0 10.0107421875 20.700000000000003)"><text x="0" y="0" font-family="Helvetica, Segoe UI Emoji" font-size="36px" fill="#1e1e1e" text-anchor="start" style="white-space: pre;" direction="ltr" dominant-baseline="text-before-edge">2</text></g><g transform="translate(10 674.6396799645547) rotate(0 10.0107421875 20.69999999999999)"><text x="0" y="0" font-family="Helvetica, Segoe UI Emoji" font-size="36px" fill="#1e1e1e" text-anchor="start" style="white-space: pre;" direction="ltr" dominant-baseline="text-before-edge">1</text></g></svg>