<svg version="1.1" xmlns="http://www.w3.org/2000/svg" viewBox="0 0 141.5208240390471 258.3516411925175" width="141.5208240390471" height="258.3516411925175" class="excalidraw-svg">
  <!-- svg-source:excalidraw -->
  
  <defs>
    <style class="style-fonts">
      @font-face {
        font-family: "Virgil";
        src: url("https://excalidraw.com/Virgil.woff2");
      }
      @font-face {
        font-family: "Cascadia";
        src: url("https://excalidraw.com/Cascadia.woff2");
      }
      @font-face {
        font-family: "Assistant";
        src: url("https://excalidraw.com/Assistant-Regular.woff2");
      }
    </style>
    
  </defs>
  <g stroke-linecap="round" transform="translate(10.000000451102096 10) rotate(0 60.7604117056691 39.89203462316482)"><path d="M19.95 0 C43.56 0, 67.18 0, 101.57 0 C114.87 0, 121.52 6.65, 121.52 19.95 C121.52 30.93, 121.52 41.92, 121.52 59.84 C121.52 73.14, 114.87 79.78, 101.57 79.78 C79.11 79.78, 56.65 79.78, 19.95 79.78 C6.65 79.78, 0 73.14, 0 59.84 C0 44.79, 0 29.73, 0 19.95 C0 6.65, 6.65 0, 19.95 0" stroke="none" stroke-width="0" fill="#ff9e01"/><path d="M19.95 0 C45.06 0, 70.18 0, 101.57 0 M19.95 0 C39.64 0, 59.34 0, 101.57 0 M101.57 0 C114.87 0, 121.52 6.65, 121.52 19.95 M101.57 0 C114.87 0, 121.52 6.65, 121.52 19.95 M121.52 19.95 C121.52 29.71, 121.52 39.48, 121.52 59.84 M121.52 19.95 C121.52 31.75, 121.52 43.55, 121.52 59.84 M121.52 59.84 C121.52 73.14, 114.87 79.78, 101.57 79.78 M121.52 59.84 C121.52 73.14, 114.87 79.78, 101.57 79.78 M101.57 79.78 C77.34 79.78, 53.1 79.78, 19.95 79.78 M101.57 79.78 C69.9 79.78, 38.23 79.78, 19.95 79.78 M19.95 79.78 C6.65 79.78, 0 73.14, 0 59.84 M19.95 79.78 C6.65 79.78, 0 73.14, 0 59.84 M0 59.84 C0 44.08, 0 28.33, 0 19.95 M0 59.84 C0 44.48, 0 29.13, 0 19.95 M0 19.95 C0 6.65, 6.65 0, 19.95 0 M0 19.95 C0 6.65, 6.65 0, 19.95 0" stroke="#1e1e1e" stroke-width="2" fill="none"/></g><g transform="translate(33.749669969271224 29.1920346231648) rotate(0 37.0107421875 20.700000000000003)"><text x="37.0107421875" y="0" font-family="Helvetica, Segoe UI Emoji" font-size="36px" fill="#1e1e1e" text-anchor="middle" style="white-space: pre;" direction="ltr" dominant-baseline="text-before-edge">ARP</text></g><g stroke-linecap="round" transform="translate(10 109.53426927106136) rotate(0 60.76041201952356 69.40868596072805)"><path d="M30.38 0 C50.49 0, 70.59 0, 91.14 0 C111.39 0, 121.52 10.13, 121.52 30.38 C121.52 51.93, 121.52 73.47, 121.52 108.44 C121.52 128.69, 111.39 138.82, 91.14 138.82 C69.24 138.82, 47.33 138.82, 30.38 138.82 C10.13 138.82, 0 128.69, 0 108.44 C0 91.42, 0 74.4, 0 30.38 C0 10.13, 10.13 0, 30.38 0" stroke="none" stroke-width="0" fill="#d050a5"/><path d="M30.38 0 C43.89 0, 57.4 0, 91.14 0 M30.38 0 C49.5 0, 68.63 0, 91.14 0 M91.14 0 C111.39 0, 121.52 10.13, 121.52 30.38 M91.14 0 C111.39 0, 121.52 10.13, 121.52 30.38 M121.52 30.38 C121.52 56.01, 121.52 81.65, 121.52 108.44 M121.52 30.38 C121.52 56.81, 121.52 83.24, 121.52 108.44 M121.52 108.44 C121.52 128.69, 111.39 138.82, 91.14 138.82 M121.52 108.44 C121.52 128.69, 111.39 138.82, 91.14 138.82 M91.14 138.82 C72.62 138.82, 54.1 138.82, 30.38 138.82 M91.14 138.82 C71.67 138.82, 52.2 138.82, 30.38 138.82 M30.38 138.82 C10.13 138.82, 0 128.69, 0 108.44 M30.38 138.82 C10.13 138.82, 0 128.69, 0 108.44 M0 108.44 C0 83.09, 0 57.74, 0 30.38 M0 108.44 C0 92.04, 0 75.64, 0 30.38 M0 30.38 C0 10.13, 10.13 0, 30.38 0 M0 30.38 C0 10.13, 10.13 0, 30.38 0" stroke="#1e1e1e" stroke-width="2" fill="none"/></g><g transform="translate(18.755529207023528 158.24295523178938) rotate(0 52.0048828125 20.700000000000003)"><text x="52.0048828125" y="0" font-family="Helvetica, Segoe UI Emoji" font-size="36px" fill="#1e1e1e" text-anchor="middle" style="white-space: pre;" direction="ltr" dominant-baseline="text-before-edge">WLAN</text></g></svg>