<svg
        width="300"
        height="300"
        viewBox="0 0 25 25"
        xmlns="http://www.w3.org/2000/svg"
    >
        <path
            d="M 3.6 14.5 L 3.1 15.1 L 3.7 15.6 L 4.2 15.1 L 3.6 14.5 Z M 10.4 17.6 L 17.9 10 L 16.8 8.9 L 9.3 16.5 L 10.4 17.6 Z M 9.3 10 L 16.8 17.6 L 17.9 16.5 L 10.4 8.9 L 9.3 10 Z M 22.8 13.2 C 22.8 18.4 18.7 22.7 13.6 22.7 V 24.2 C 19.5 24.2 24.4 19.3 24.4 13.2 H 22.8 Z M 4.3 13.2 C 4.3 8.1 8.5 3.8 13.6 3.8 V 2.3 C 7.6 2.3 2.8 7.2 2.8 13.2 H 4.3 Z M 13.6 3.8 C 18.7 3.8 22.8 8.1 22.8 13.2 H 24.4 C 24.4 7.2 19.5 2.3 13.6 2.3 V 3.8 Z M 4.4 14.4 C 4.3 14 4.3 13.6 4.3 13.2 H 2.8 C 2.8 13.7 2.8 14.2 2.9 14.6 L 4.4 14.4 Z M 13.6 22.7 C 10.4 22.7 7.6 21 5.9 18.5 L 4.7 19.4 C 6.6 22.3 9.9 24.2 13.6 24.2 V 22.7 Z M 4.2 15.1 L 7.2 11.9 L 6.2 10.8 L 3.1 14 L 4.2 15.1 Z M 4.2 14 L 1 10.8 L -0.1 11.9 L 3.1 15.1 L 4.2 14 Z"
        />
    </svg>